<mxfile host="Electron" agent="Mozilla/5.0 (Windows NT 10.0; Win64; x64) AppleWebKit/537.36 (KHTML, like Gecko) draw.io/27.0.9 Chrome/134.0.6998.205 Electron/35.4.0 Safari/537.36" version="27.0.9">
  <diagram name="PÃ¡gina-1" id="IKVGy_DopQR0RWY-qbrC">
    <mxGraphModel dx="757" dy="1698" grid="1" gridSize="10" guides="1" tooltips="1" connect="1" arrows="1" fold="1" page="1" pageScale="1" pageWidth="827" pageHeight="1169" math="0" shadow="0">
      <root>
        <mxCell id="0" />
        <mxCell id="1" parent="0" />
        <mxCell id="QGIApHq4PMKCcJ5c_HzO-71" value="" style="shape=image;verticalLabelPosition=bottom;labelBackgroundColor=default;verticalAlign=top;aspect=fixed;imageAspect=0;image=data:image/png,iVBORw0KGgoAAAANSUhEUgAAAiEAAADeCAYAAADrTNBiAAAAAXNSR0IArs4c6QAAAARnQU1BAACxjwv8YQUAAAAJcEhZcwAADsMAAA7DAcdvqGQAALVqSURBVHhe7J13WFRn+rBvhhEQC5aICipiAQTB2GLvLVFjTDHF2KLRJP5isu7nmpg1q9EkG2OJi1EsWGJHVBR714iKYsdG7BCqNEWkzZn3+wOEKecwA2I0ybmva6/ddebtz/OcM4W5bYQQAhUVFRUVFRWVPxiN6T+oqKioqKioqPwR2Pbp1XPq3ehooo3+8zsPHVyoUUED+jQubAsh0qYhDauXM21fYvQpZ9iy5Sp2jRtQTWv6aD7WPMecbKJPhLJl/wXSK7tTv5pdwb/rSbu0m817LpHt3BDXSrYm7Yojh9Q717gWnYFdlWo4ZKVxX1seh6dy6/aQG3sCWXa2Ii/51CjDu0OJ1EvbWLziIlXb+vBC2XWsoqKioqLyRGhcL3zLK50703PKr2gc7LDJuE7of95j0o6HAOhjVzP+7aG8PWWHadtSIHF9yae8M/Q9pu3JNn2wAGueY4I+gX0zxjF53gp+mjCEHi1688MFHaAnbtNoOnx0Eu82v/N1x4HMv6IzbS2DnsQjPzLijY/4adc14qLPsvl/Exj6yiesjtWbPrlM0MdfYVfgTAKOxCOZPvgkSPeIPhGMf2AY8dYsXQF9WgppT2fpKioqKip/V7JChorqGhvhMHCVyBSSSEpIEnl3Fomf1qWLfDLFzbDd4mRsTsH/f0IyosSR3adFfJ7pAwZY8xxDHt4S16PzhBCSSAzsJypqXhBDQ7KEyIsQ//YrJ6q8Fyyyco6IzxqWE7WGhYgHpu1NyDn/g+hUp5uYc9VwAtni4o/jxI8XrZ1USdGJqP92EI3HHhDZpg89Ibqr34l2HuPEodJ2LCWIkM++EBszTR9QUVFRUVEpPbaT3202dc6Gi+R5vs4Xb9mybuU1mvV+i5e8HLHV6Ig9sozAkJNcy6pLj2Y1gQwurv2JwF0H2HnkAQ1faozN5bXM/HE52246Ui95Jf/vq+2Idj3x1J9mxczFhGxewZpzDrzYshwnlgSy/cx18tw64eusQZ8WYeE5kBQWwNSfthFxbB+npca0buhk/HGFXVWqOWmATC6sn8u2ql8QOLktVWPWMnXqXu43H8L4VytzdPEyDt6tSZ+Pe+OwbxpjvtqBvlUPfKoa9nafLRPeZ2ntr1gxthkOhf+upaafJzW1VajGNUJ/Wcfug4c599AF30ZV0aIn5cxWNu4P5/Tpc6RU9KVh9UyuhP7Cut0HOXzuIS6+jahq+vGSlEh40Eo27T/Jb1GnidD2Zmw/d7SPbnFgzQrWhYbxu6MHPq4VsDFsp0/hzNaN7A8/zelzKTi+kMquAH82x7jSyTuX8OX+zNt7H492nlRODWPF+gzadc1ma0AwF6R6+DWoipYMmfmZrMOxFnHLRjBqbiSSvR4H1xY00sqs32Q+FX0bUl396EdFRUVFpTgevxNSrvlw8Z8P24smH2wVWYa3KYkBoredRlQdvFEIoRM3Al4RNX0mivCsW2JWp8qi5ZSzQmRtFkOqa4S20cvis8/fF20adhM/nr8hlr5WSzT89KBIDR0hamlri5HbH4obP3YQ5TQ1xQehWULo7lh8ju7aXNG9ipN4fVWayA77p/Bw9BETfpV5SS6lihNzBgi3cjbCxr6RGLU5QWQd/kw01GpE7VHbRVZOuJjYRCtsKg8S6zNzxLEJXqKcbW0xcrvRaoXIOSb+n4e98P0qQsi/55EldoxqKPovSRZS8hrxlmsv8XO0JER6sBj5/kKRIEkicetk8d2+bJG1Y5Ro2H+JSJaSxZq3XEWvn6OFZNiVlCx2jOsrPtocK3R5t8Ti/s7CfewBka27KZaPnyS2xuWJ7OvzRJ/aLcWUCOPZpAePFO8vTBCSlCi2Tv5O7MuWxJ05XUXdkdtFlhAi79Qk8aLfRBGeI4Tu6veinUtHMXraHOE/bbDwq+omhm1MEply85NZh0hfJvrXeFsEZQrF9ZvPx2i6KioqKioqZhS+VrV168qo4T1p7Gj0ehtsbLB5/E/STTau3E+qFMPBJSFczbHh5rFfAQ0aDdg4tGDorNWE3zjIPytuZtmuFGrWrUvlPlNZvyaQf3Yuj63WtvAVvXRng4Xn6LiyfhVHM6rh4loebe3aOOddY92qX8kpnGABmqq0HR/M4bUf0FjcZG3gdtI0moJ3TGwAPXoBaLTYauxo/98wrl07y/x+Re915CMQgPLfLdvRYvR8JndNYt/2S2Ro0khO14OtAzYnZjBkQiBRzcczrq09di1GM39yV5L2bedShoa05HQMv1Yh3VjGjL3uvNPXBVttPbp0bIwWkKLWsSziIcn717HhhB09RvWidm6WQUuwdbDhxIwhTAiMovn4cbS1B63B3lJOi+FXcG0qNmfwxPGM+3o5Sz9xYkfwYfRy85NZhzHy65ebj4qKioqKSnEYvGGu5YX2n/FRr8rYAPcvXeCm6TckpRSS0wQ4NOaVT/5J4Ml00vZ9XviwTU0XXAt6lO7dI0UvSIqLQ7Jzo8vbffGpVNSVdc/Rk5aajrAph125x5dXPffT0hW+vGlH/Te+Z0IPRzRaW+waNqKeFvR6CZCQ9KCt1xB3LaCtToNGtQw+bnnchQ9tWzoRc+ECKWZfxJSQJD2Zd/YQsDAC5z598XUCIYCK/fHfM5fOcQG80aw7Xx1KRJ95hz0BC4lw7kPfwicWobt1nds6m8IbB03B/5LSUkmVatFu8FCGDh3Dv6Z/y4dtjDevYn9/9sztTFzAGzTr/hWHEs0mq4AdDdzrYIuQn5/MOoyRX3/p56OioqKi8ndFU3RhFAhNdfq+1gX7zNPMDzyC2R9TaBvi7eGIdHUnWy7lALncvHSt6HGDi6ydx4s0raznzs4NhGUA+vvcSzF+/8Lyc+zweelFKpNJZqZAPHzII+zxbdmMohfaeu5t/piXOn3EysuZIDLJyKpCr4G9qFqzF6+0diDrYSZ6kUdungb3Hn3w1epJ3D2VwW//i413TG9nqvDapC9pdXY2X2+LM7jZecS1bWs4ePM4C745QK1B79K8fAb3swUiN4vspG2EXO3I1+sjCJ/qTOj6Q5xc8A0Hag3i3eblybifjRC5ZGUX7arWy5fGyXsJOpSCHsjNyyM3Nwc7r9b43JrP+Fm/kpCTS9z+eQSGZRa2A0jdFsLVjl+zPiKcqc6hrA/TUd7RgazUFB4hkXj9NmnZueQatQJ4xPmL9+k5sB0X5OYXt8VkHWGgscFGyiNPn0H6Pfn1x20xnY/5yCoqKioqKobYNne2nbruVDxSjkBjm0rkgQ389K+JrLIbxNS3m2KXfY41c7YT6z2IL95qjWcjW8K3rGPN+r1cuPIbosnLNL6/jfkLD/O7/gVa9O9D02rloLwnTatcYtuGdazfeY7rt9Kp3qQWN4IWsOliCuUbv8LIvt0tPufTj1+h+tXNhN6oRJXboeyxG0XA7NepV3gXYkPu9a3MnRvIisDlrN2wm/Sec1g0viWVbavTzKccxzdGIFW6y8ErrfnG/0OaVNRxYeH/8cWyCMp3/z9e8zT+/RPbmm0Y0NWBX2f/h582HeX02bOcORsFrd6jv1dVcqNW8cPcbVy7XxFt4hEi7nvRrU0SAR/P5XxOJon3bGj5zgd0r3WXVT/MZdu1+1TUJnIk4j5ePXriVfBFWE2VZrSqGcnCr74l6PRdkmNvcT3dkYZdRjCs/QNCZ0zky+9+4ewLQ/lihDeVCj9r0ZNx9HvGzD1PTmYi92xa8s4HnWnsoufS3H8zc+dVpNqVSTgbi7ZJa7p6vsDDS6EEH7xOzJUwfnP7lG+GelE9L8psfh5t7dk00d9oHe3d7bm7x58le3Pw7N6beglrTNbvQVv7TUz0N56Pm9nbTCoqKioqKkXYiGJ/tl2PPv0XXqv1ISfe3kTyyoH5/5wZz9UbaTg19MKlYvF/ApGTFEXUPUfcm9SlksJTLT8nl9Rb14jOrYmXV03zj1CA7MRrXIuTqN7Ai7pOxj9Ipn8YS1SsLW6etXB8/I+597h5R8LVQ+YjGRUVFRUVFZWnjk2x38H8C1PsvZeKioqKiorKU0f2fQcVFRUVFRUVlaeNhY9jVFRUVFRUVFSeDuo7ISoqKioqKirPBPUmREVFRUVFReWZoN6EqKioqKioqDwT1JsQFRUVFRUVlWeCehOioqKioqKi8kxQb0JUVFRUVFRUngnqTYiKioqKiorKM0G9CVFRUVFRUVF5Jqg3ISoqKioqKirPBPUmREVFRUVFReWZoN6EqKioqKioqDwT1JsQFRUVFRUVlWeCehOioqKioqKi8kxQb0JUVFRUVFRUngnqTYiKioqKiorKM0G9CVFRUVFRUVF5JmiOhYURFhbGsYibpOsBHnLn3DHCwsIIO36FRMm0yXPKwxvsWTCLDVd1po88EVLqJbb+70c2RP1ZNsIQHYmXj+efZVgYxy/Gkm36lD8j+hR+nT+dtZdzTR9RKUukVC5t/R8/bojij4r+hzf2sGDWBkqcxk8p//9s6FN+Zf70tTy/qfGQG3sWMGvDVUp3UnruX9vF/O9XcaF0HfwJ0JPy63ymr73Mc3uMZYgmYekQeoxax4O6rlTWADhSu46e7ZNncKaKK9VtTZs8j+iJv7KLwJkBHIkvy3IpcS/6BMH+gYTFP0nE60lLSUNv+s9PHS3V61QncuZAek/6lQr1auBg+hRD9GmkpD3FWZZZ/xq0dvaUs/0zvJH3rM7+yZHuRXMi2J/AsPhSXjBKiD6eK7sCmRlwhJKlsbX5/+c9C6vRaLGzL0dxqaFPS6FM0rCAkvSnj7/CrsCZBByJL92NrT6Z6IiNzPv5AHefJCjLrBY9HTRaO+zL2f4tPqrQ+Hq5YFenCc2cHQoWrMG+hh/ezX1o0cgJrWmL5xINtVv2oaVrWd8x2VLLtxPeNW1MHygR+sRQps48+EzehdA6udPUvRqV6jfBs4qd6cMG6EkMncrMg09rlmXYv6Yq7UdPZJDX8x+dz/LsnxTbWr508q7Jk0V/CdDUpmWflpQ8ja3L/z/zWViLpmp7Rk8chGJq6BMJnTqTskhDKHl/mtot6dPSleJPqhg0zvh08cPlia7OZViLngoaqrYfzcRBXn+S6++TYft5z7pTF930Zdywl6hUWG1yuLA3jKo9e+ImJRCxcQXHdHXJ3DePRbuTqNnCmxrlIONKKL+s283Bw+d46OJLo6qmWyaREB7Cxh17ORiZh5uvG5U08u30KWfYunE/4adPcy6lIs0bVpd9nilSYjhBKzex/+RvRJ2OQNt7LP3ctTy6dYA1K9YRGvY7jh4+uFYwLqXG4zlSK3UX8/03E+PaCe/ccJb7z2PvfQ/aNdZxfMV6Mtp1JXtrAMEXJOr5NaCqVn4d6FM4s3Uj+8NPc/pcCo614lg2YhRzIyXs9Q64tqhJ/PZfWLf7IIfPPcTFtxFVtXpSzmxl4/5wTp8+R0pFXxpWN8myR7c4sGYF60LD+N3RAx/XciRGbGTFMR11M/cxb9Fukmq2wLtGOeN2SETvCSA4qxf/eN0LfUIEG1ccQ1c3k33zFrE7qSYtvKuTfnQmw0bNJVKyR+/gSotG9tw5sIYV60IJ+90RDx9XyiVGsGn5UR5UuM76pRdwrJvFr6tN+6pBOTDZ/ybYnZ1l0n9Vo7t8fep5Ni9bScj+88TF/UaMXTXSdy7Af3MMrp28yQ1fjv+8vdz3aIenQyzHg1ZzyrYF3s4a4BG3LMzVqXVTKkYXExO5iZwJWcaRR+5IYQsICLmOo09TtBfWsCBwB3er+uFbywHI4Eqoyfnp5XOkevpRZg4zPPtG2N8xmUO5RNm2+cdo3bqctYA+nojV8+X3yzFJcQzZGC5EkBy2gvUZ7eiavZWA4AtI9fxokB/8hP6yjt0HD3PuoQu+jaqiRT6OLeUiSCSGB7Fy035O/hbF6Qgtvcf2w11rvn7Tpkr5b7quBroTZmdRKfEEQWs2s+fAGZKrNcGzhr1Z/lb0bYhhKmbHHCco6ByaCjdYO28tpx654OtRnXJKcbFpOUcfVOD6+qVccGpN0/K/yexbEbkJMueba5r7FbAhl+gjwYSeiCD8TBySTTaZOFEx7RRBq09h28IbZ0zW4lOZK7OHMWpuJJK9HocaLqQd/MVofm7JO03iQU9CxCaWH31AhevrWXrBiU5NnfMnq7/H0ZkG/bm2oFGlRE4ErWHzngOcSa5GE88a2ANIiYQHrWTT/pP8FnWaCG1vxvZzJ0su/iycgXhwkpVLE2j72UA8tTL7Xmw91XPPqNbVwCXtIL8Yra+8eZ8KOV6jnNxYmebttSheD6WEcEI27mDvwUjy3Hxxq5RLzPEgVp+ypYW3MxpAF28eq7mytVyu/vrgWkHIzNPkGqNP5fzmZawM2c/5uDh+i7GjWvpOFshdFz2roDG7JlUo3QuW6z+0ExW7zxOxkjAgXfwy/gvxa44kUiKDxJimlUTLYT+IBWtWii861xKdZ10XuqwdYlTD/mJJsiSS17wlXHv9LKKN+tCJmytGieH+l0WWFCsWvvyC6DDjqhCy7dJF8Mj3xcIESUiJW8Xk7/YpPM+wfyGk5B1iXN+PxOZYnci7tVj0d3YXYw9kC93N5WL8pK0iLi9bXJ/XR9RuOUVE5Bm2lBlPuiPmdK0rRm7PEkLkiVOTXhR+E8NFju6q+L6di+g4epqY4z9NDParKtyGbRRJmfLzSw8eKd5fmCAkKVFsnfyd2JctRPqy/qLG20EiUwiRtWOUaNh/iUiWksWat1xFr5+jhZQeLEa+v1AkSJJI3DpZfLcv23CyQuhuiuXjJ4mtcXki+/o80ad2S/Gf/edE0JimolLLYeKHBWvEyi86i1qdZ4nrOuOmQuSIX//hIWoODRFZUoqIDBojmlZqKYb9sECsWfmF6Fyrs5h1XSeESBfL+tcQbwdl5p/d8vFi0tY4kZd9XczrU1u0/M9+cSn4Y+FXoZkYNnuO+PqTSWLBktGyfcnvv2H/xkgJoeLzQRPEzjid0MUHiyFuDcTYA9lCujNHdK07UuQfySkx6UU/MTE8SySdXy6Ge9QWw7dmWTfXsdPFtlNLZeZUOAORdjlEfNrcUbT+eIlYGxoqfnqjvnDr/6XwX7ZZbP5xgKjX7CsRkSd3fnfEPaUcEcZnb74v/xH7zym1tW5dO5OKkkJpv54kh69+3064dBwtps3xF9MG+4mqbsPExqRMsWNUQ9F/SbKQkteIt1x7iZ/zg98sjs3XbJqLkkjeMU70/WiziNXliVuL+wtn97HiQLbM+qdEGDZUzH+l2mF4FlJskBg54CsRli6J7KjFYqBHRzH9VJZs/hYNmCAiAt4TDZw7iJFTZgr/6YNFU6c6YkhwksiUi4tLweJjvwqi2bDZYs7XY8X0ndHy+1bYf4r5+cZfN8v9KRF5In3nJ6L1u6tFkpQlTn7pJ6q0HSuWH40U55cPFx61h4utWfK1SKQvE/1rvC2CMiWRYjq/LWvN9u3OvUsi+GM/UaHZMDF7ztdi7PSdBhti2J8QQooVQSMHiK/C0oWUHSUWD/QQHaefEllSstgxrq/4aHOs0OXdEov7Owv3sQdEttI5yc3bACl6rujmmr9G83y0op4a1DopxXx95n0Wk+MyY5m3jxaSwvVQd3OFGDXcX1zOkkTswpfFCx1miMvx58Xy4R6i9vCtIkspVsNjFWu5bM4lm8/TCClBhH4+SEzYGSd0ungRPMRNNBh7QGQrXhfNr0lTjBPbajQaWw0IYXJrokePBg0aqjXtTRs3Bxr2G8cngwczvI87CXd+R2fXgtHzJ9M1aR/bL2WgSUsu+GJrAbpIfpl/C9/+njhoXBi18iSrP2wMsu1scbA5wYwhEwiMas74cW0VnmfQPxI3ls1gr/s79HWxRVuvCx0bawGJqHXLiHiYzP51Gzhh14NRvWqTm2XYVmY8tGhti+7jymkN3jC0qUjzwRMZP+5rli/9BKcdwRzWy8/P1sGGEzOGMCEwiubjx9HWvqgbALsWo5k/uStJ+7ZzKUNDWnI6elsHbE7MYMiEQKKaj2ecSSMpah3LIh6SvH8dG07Y0WNUL1zKN6R3GzccGvZj3CeDGTy8D+4Jd/i9uM9JNdVo2rsNbg4N6TfuEwYPHk4f9wTumDaSoli3LIKHyftZt+EEdj1G0culPD6vtMPdrgG9PhrPtAXf88lbbWX6yrFi/w2RiFr2IxG+I+hd2xbbGi/StG7B3mu1FB1JOfKPREMN3960qldwF2/NXOdPosHeFcXMSUMV7960rW+PS/vBvPfqq3z4WjMy7f0Y9cHrvD6iH96Jd4jWyZ3fA6oo5cjj7vMnKrMvLpRvqNDWqnVN5pUaBq9mFPar1DkMgA0Vmw9m4vhxfL18KZ847SD4sJ4Wo+czuWsS+7ZfIkOTRnJ+8JvEsVZmzSaxIN1g2Yy9uL/TFxdbLfW6dCQ/jWXWX9vwa3pK+Y8VtUPHlcDZhNXrRSsnDfYewxjXM5aAgP3kFZe/mpo079Uc18p+vDdpAuMmL8V/qD07Nx1BLxcXPq/Qzt2OBr0+Yvy0+Ux+xVV+3wr7r2Z2vr1Tg8xyv3ZuBjeOneB+DVcqaxzwe8mP8rZudGzXFN/erXicGsXXIg3VTOf3ajezfXtQxYdX2rlj16AXH42fxvzJrxh2YoTuSiCzw+rRq5UTGnsPho3rSWxAAHsuL2PGXnfe6euCrbYeXTo2zn/3R+Gcip+3Meb5aLmeGqKpZr4+8z6LyXGZsczbp6OXvR66E/nLfG759sfTQYPLqJWcXP0hnrV86d2qXsE7xQqxuugsjWRruUL9zTWfpyFS1DJ+jPBlRO/a2NrW4MWmdQs+MpO/Lspdk2orF/li0VSsVBEy7pNueB8ipXFfVMZJA2CDjcF7LOVsbRF6PegzubMngIURzvTp64sTAqNbGSmV5NR7JCXlf/1IW6M+TuKBQruK9Pffw9zOcQS80YzuXx1SeJ4hOm5dv42ucHIa8t8LkkhLTUWq1Y7BQ4cydMy/mP7th7SpZNhWZjwrsWvgTh1bEArzq9jfnz1zOxMX8AbNun/FoUTjqq7PvMOegIVEOPehr69T/g1gxf7475lL57gA3mjWna8OJRq1kdJSSZVq0W7wUIYOHcO/pn/Lh20qYWN8MNgKveUv3dnYGLxlVg5bW4HetJGURmqqRK12gxk6dChj/jWdbz9sk9/WxgbN4w5k+7Jm/w3RcfdWDJLhWiySPw+wdq7WzcnGYD0aW03R2rQaNCJ/n2TPTylHjFCag0Jbq9ZlLQpjKMSwInYNcM8PfjLv7CFgYQTOffpSuA1mcRynsGaDPnW3uH5bVzS/wjRWWH9RQ4X8x4p1ScTHJfIo63HR1FKnbi2yMx5S3kL+PiZ/KDs8PetjI+mKiQsbbAoPS2HfDDE5X/ncr0rTAW9SK2IDe6PjORmeSKt3+1Pf9nH7/LaWapHZ/BT2zcbGBhsbg3xQQIqPI/FRFoW7WqcutbIzeHDzOrd1Brn1+H8pjGd53kXI7rtZHBrXU1NM1yfbp1IOyYwl2172ephGanIq95KS8r+kq61BfSfBA71hLVKOVakk9be2+TwN0d29RYxk2F/xyMelYpEvFk21tu3xunuUwzFF31XOvrqVyIrt8l+RgGxhyj25gG8O1GLQu80pn3GfbCHIzcouevVXzoc2fvGsmvozp1JzSTu3nEU7EhTaxbEl5Codv15PRPhUnEPXKzzPoH+0ePk2JnlvEIdS9EAueXm55ObY4dXah1vzxzPr1wRycuPYPy+QsMzChkAq20zGQ1MeR4csUlMegZTI9dtpZOea/4HUo/MXud9zIO0uyM8vaVsIVzt+zfqIcKY6h7I+LBeNjQ1SXh76jCQO/PwNB2oN4t3m5cm4n40QuWTFbSHkake+Xh9B+FRnQteHGY1p59Uan1vzGT/rVxJyconbP4/AsEz5g5FBr9cjCqudUiMNNjYSeXl6Mh650NLnFvPHz+LXhBxy4/YzLzB/TsZFU64vpf036D/9vsE347U0blKfqI2LOZSoR//gLjGp+UVHU94Rh6xU8o/kOrfTsik8kscTsfOitcW5Ks3p8eOPMb1YmZLLyQUy55etU2xXdPaPcGkpPwfZtlaty5ji9kuuieUcM+HReS7e78nAdhdY8M0Bag16l+blM7ifLRC5WWQnbTOJ41OW913rhW/jZPYGHSI/jfPIy80lp5j1FzRUyH/ldekLzyKLRt06II7u5NhDAB3xiXq6v9qFLJn8NUVkZ/NIAORx+84D2vdsxQWFuDA6rNyT8vtmsuGGTZRyX+vsSe/Xu1D+ygU0I9YT8ql34XdLHrdPlVuLxgYbKY88fQbp9yWjwZT2TVdcXhj0l9WoGx3EUXbmbyq6+ET03V+lm58vjZP3EnQohfwjziM3N0dxPLkaKo9CPlqop0a1Lv0+ktH6FPpUyvFU05g/JN9e8pS5Hqbg08aP+FVT+flUKrlp51i+aAcJegxqkT0tesjHannZGSnUuhjTeRrvibZxE+pHbWTxoUT0+gfcjUnNf0GrcF1UisvSYDstYMfU9jUi+Hn6Ug6cPM6B7ZvYElmfj796k3oOcP9qCEsWBBNp40fnxpnsWxXIjtuV6DCgDblbf2Tutmvcr6gl8UgE97160NOr4AuHNhXxeakRcZumMWHSHLYnt+fziX1xdcolatUPxu082mK/aSL+53PITLyHTct3eLl7LfPnGfaPhirNWlEzciFffRvE6bvJxN66TrpjQ7qMGEb7B6HMmPgl3/1ylheGfsEI70pFd3n6DI5+P4a5BuP1ad+YavpLzP33THZelahdOYGzsVqatOmIh/YqocEHuR5zhbDf3Pj0m6F4Vc+TmV832iQF8PHc8+RkJnLPpiXvfNAZd/u77PFfwt4cL/q+pGfrjLlsu3afitpEjkTcx6OtPZsm+nM+J5PEeza0fOcD2rsZ/DGtYxPaeqUQOmMiX373C2dfGMoXr9uwL3ABwZE2+HVuTOa+VQTuuE2l9j3o4e5U0FBH7KlgAhev5WhMOeo2dYezG1gSHImNX2caZ+5jVeAObldqT49ODan8+x78l+wlx7MvY4a0IS10BhO//I5fzr7A0H8NJGdfIIuCI8is146OL1YgessSFsj09eqYd2mTbrr/TnD3cf/d6NTYqfAcq/k2pULYHP4xeTEnHtSicvwZ6DGWfp410F+ay79n7uSqVJvKCWeJ1XrSuMJp1i3ewjX71vTs7Ef7Tl6kFDtXF2p4t8UrxXRORTHxMCqUxQs2cE7yolNTOLZmCcEX9Ph0bELuoVUs3nwZbcte9Kl/j6AfjM+vrttDDq/ZaJYj7Xt0omHl3wvO3pO+Y4bQJs14Dq/b7CNQJr/a9+hN3z4+Ftdl9EVNu2oy+9UET6cLBC8yH8NiDqNBq33IpdBgDl6P4UrYb7h9+g1DvaqTF7WKH+Zu49r9imgTjxBx34tubZII+HiuURz3eLlrsfuOpgrNWtUkcuFXfBt0mrvJsdy6no5jwy6MHdbeeP1fjKBR4bfnlfO/TZf63Ftvmps96OP5gH2Pz2L0cNolr+K/i05y984pLlcYzNSxL6IJ+54xJvlrmIoi7TgrAvYTl5dF7LndHJUGMfUf7XDVRbHKKC7SqVM3g8PrNhGRWY92HV/EpaIjuTL71qOnF1U1gD6dy5uXGJ9vBZncH+FFzu5vGT1lDWFnwjm8ewuhR+Oo3qoJj3YtImDLNexbd6dDfID5WioI7u7xZ8neLFxdkjmwZmPh/FxfMK9p6XXqknF4HZsiMqnXriMvuph8+dD2cX85ePYdzfB2yaz67yJO3r3DqcsVGDx1LK3cXqRVzUgWfvUtQafvkhx7i+vpjjTq2hK2z7SqhhaegT6NSxsXEhByDfsW3Xi9frLJvltRT7FFFNSiLFcXkg+sYWPh+irimGt6lso53ratDWsnGI/VvdZds/ZePQfyZh8Pk+thPxo3f4lGcZuYNmESc7Yn0/7zibzseI0NCwPYcs2e1j0749e+K973TGO1IXElqL/D6p7jv2OMc9NwTzTVfGlaIYw5/5jM4hMPqFU5njP0YGw/T2rIXRe7fMDgdukmcelt8Mct1mMjil4iq6g8e6QbzOjal+hvIpnfXfmzXBWVZ4F0cybdXr7NlEsL6PHMwlNH1OpZhHkMpnvlB9x/mEHqjWA2x3/Mz+M9TJ+solJCJG7M6Erf6G+InN89/6+bniImf6OjovKs0SFJeoTyx8AqKs8OSY9eLyl/ZPVHkHME/+83c/5mPPqqLtStWYGsVGfa96xv+kwVlVKhkyT0f1ARVm9CVJ4j9CScDSOtXjNsIsO49cj0cRWVZ0huDCePpFKvmQ0XD0aRYfr4H4V9N6at/IwaR+fxxdixTPQ/hE3vzxjsW9yPEaqoWIc+4SxhafVoZhNJ2B9QhNWPY1RUVFRUVFSeCeo7ISoqKioqKirPhNLfhOjvc23XfL5fdQEdfwZ7o4qKioqKisrzRKlvQvTJ0URsnMfPB+7mf0nLCnujioqKioqKispjSn3LoHH2oYufS2EHFu2NKioqKioqKioG2JwK8hc363bDPmwbOa+M592mem4d2MDW8Gh07q8w4t3W1NBkcCV0Hftv3yfLzo9BH/ShgYOemP/1pN25f3BjxQCIOc6m0Hhe/OhN6kcs5vvdKVSpqAXdQ+6lVKTr+P9Hp/vbWbf/Nvez7PAb9AF9Ghj+gIyKioqKiorK3wnNsu8m8cPCvdzJ+J0bMencWjGZwMw+jJswmPIrX+OVaafJ3jmeAUs0vD9uJHUPjuLjpTHGjhL9PaIOLGbad9u4qdPzKK4crT6bxL/+3wia3NlASGJ9Xqy6m/EDlqB5fxwj6x5k1MdLiflj/gxZRUVFRUVF5TlEY2RR7J0qa66UtQIa9VLDwN6oocabH/B6dYnotf/H58d7EeA/CBcHeWOiioqKioqKyt8TjZFFUcFcKWsFNMXA3giQe3U+o/8dzZDA/9KzqrIxUUVFRUVFReXvicZE2ShjrlSwApqqHw3tj5kn+X7kbMQ/l/HvNhWQYs4RsWO+rDFRp0/h4uHTxBVpVVVUVFRUVFT+BthWsxVTCy2PFSrQpK2JkfSLEfja/WZmBfRoVYvI9YsIuWZPi87e5BxYVmBvbEf5pcP49HRT3u6o5fqZE+xYuoO0V3pTOXSGmdmye8VdjB34Px71e5+21Uv9xzoqKioqKioqfzLUn21XUVFRUVFReSaobz2oqKioqKioPBPUmxAVFRUVFRWVZ4J6E6KioqKioqLyTFBvQlRUVFRUVFSeCZrjYWGEhYURdiyCm8/hr4c9vLGHBbM2cNX8L4JVTJBSL7H1fz+yIUr9e+fnDf39a+ya/z2rLjybQM5JvcOlcxe5mZID+gzS0q2LEevzT8/9a7uY//0qntoS9Sn8On86a/9kqm590nl2hhzlVrbpI8+AhzfYs2AWGywf6JMjxRC+ZRsR8dIfEx/PM08Uuw+5sWcBszZczZfFlgkm56E4v6cxtjGaSmH/pk+/KZyoUB/XSs/ZGyP6eK7sCmRmwBHirauZxujTSEl7/m6sng4S96JPEOwfSFj8k4SLnrSUNONfxFV5QvQkR0ewcd7PHLhr6WzKdv/1iUf4ccQbfPTTLq7FRXN28/+YMPQVPlkda3mMkuSfPpnoiI3M+/kAlpdYkrw03A8NWjt7yv2pVN0Sd9dM5r9noNozV2Xpib+yi8CZARyxeKAlR5+WguGx5kYs4MvAO5SvZluy+PhLUvrY1cdfYVfgTAKOxFNmp2Z2HvLzeypjm6Bp7NMApxea0KpJDRxsTR9+xmhq07JPS1xLNS89iaFTmXnweXj58UdgSy3fTnjXNPjZ2lKgTwxl6syD/F127Y9Bg7NPF/xcLBegMt3/3AvMHDSE3c2+J3D6J7zVrz+DRk/kuy9fwznrvuWbkJLkn8YZny5+WF5iyfLSaD80VWk/eiKD/lSq7ofEuIxh9TedqGL60B+Ohtot+9DSqgMtIfpEQqfOpOhY9SSmNWfq8v+jqX1J4uMvyhPErqZ2S/q0dKVMT830PBTm91TGNsF28nvNp/rvseON/+uLu8z+6OJPELRmM3sOnCG5WhM8a9iDPoUzWzeyP/w0p8+lUNG3IYW/M5Ydw/GgIM5pKnBj7TzWnnqEi68H1cvlkhCxieVHH1Dh+nqWXnCiU9NqxJ8IYs3mPRw4k0y1Jp7UsAeQSAwPYuWm/Zz8LYrTEVp6f9yC5PXz8d8cg2snb3LDl+M/by/3PdrhWUWDlBBOyMYd7D0YSZ6bD47nZzNs1FwiJXv0Dq60aFSJRJmx9Cln2LpxP+GnT3MupSLNG1Y33gB9Kuc3L2NlyH7Ox8XxW4wd1dJ3ssB/MzGunfDODWe5/zz23vegnWcVNDzi1oE1rFgXStjvjnj4uFLB4L5AdrxHtziwZgXrQsP43dEDH9cKFDXRk3JmKxv3h3P69DlSHF8gdVeA/D5UTiVsxXoy2nUle2sAwRck6vk1oKoWMq6E8su63Rw8fI6HLr40qqo1m0uzyleYOWwUcyMl7PUOuLaoSfz2X1i3+yCHzz3ExbcRVfUJRGxcwTFdXTL3zWPR7iRqtvCmRrmiNSrFx6NbB1izYh2hYb/j6OGDq+HGkMGVUJOxtEBuNEeCQzkREc6ZOAmb7Ewor+Pq1uUcfVCB6+uXcDjmOgdWbZU5DwdijwcRdE5DhRtrmbf2FI9cfPGoXg4yrhD6yzp2HzzMuYcu+Daqij4hgo0rjqGrm8m+eYvYnVSTFt41MFwayKyjXKLlPREPOLlyKQltP2OgpxbQmcV+9QdHTfa/EfZ3TPdMGMdDRV8aKvzI3/0tE3h/aW2+WjGWZgavwrU1/fCsqaVKtUpkysSFbP6N7Yd7lvmeGZYM8eAkK5cm0PazgXhq5WpHOe4dnWmSl/bcUcgX/T2T/fC252rwak7ZtsDbWQMyuVYuUfkMzc6tcKB4IlYr1BbHJItnmysXN146zq+ej//me7T/+HUcTxn2eY8zIcs48sgdKWwBASHXcfRpivbCGhYE7uBuVT98aznIrq9CXgIRmx7H/lIuOLWmabV7nAhaw+Y9BziTXI0mnjWwL5oeAFJiOEErN7H/5G9EnY5A23ss/dy1ynvyuJ1RXfXFrZLGPHca6Dgxcxij5kYi2etxcG1BzfgdhJyO4VbE+cK4shwfBbOWy3mnF6hIvMV15qMnPmI18+VqtHs2ZyycZ3bMcYKCzqGpcIO189Zy6pELvh7VKZcrs/cVo2Vqt0RCeAgbd+zlYGQebr5uVMqN4XiQQezqrFiLlEh40Eo27T/Jb1GnidD2Zmw/d7QluV4U1Ae5+m90HjqT+SmNbXr2JjWgVGSFfiBcGn4qDmYLM6TYIDFywFciLF0S2VGLxUCPjmL6qSyRHjxSvL8wQUhSotg6+Tuxr7CtJBIiAsR7DZxFh5FTxEz/6WJwUydRZ0iwSLh3SQR/7CcqNBsmZs/5Woydvl3EBo0UA74KE+lStohaPFB4dJwuTmVJInnHONH3o80iVpcnbi3uL5zdx4oD2UJId+aIrnVHiu1ZQoi8U2LSi35iYniO0N1cIUYN9xeXsyQRu/Bl8UKHGeKqLl0s619DvB2UKYSQFMZKF8Ej3xcLEyQhJW4Vk7/bZ7IBCSL080Fiws44odPFi+AhbqLB2AMiW7oj5nStK0bmT0ScmvSi8JsYLnKETtxcPl5M2hon8rKvi3l9aouWUyIMOpQZT3dTLB8/SWyNyxPZ1+eJPrVbiikReQZNgsXI9xeKBEkSiVsni+/2ZSvug9BdFd+3cxEdR08Tc/ynicF+VYXbsI0iKXOHGNWwv1iSLInkNW8J114/i2hJZi5CiPRl/UWNt4NEphAia8co0bD/EpEsJYs1b7mKXj/fEfcig8SYppVEy2E/iAVrVoovOtcSnWddF7qiGcvGh+7mcjF+0lYRl5ctrs/rI2q3nCIMl2k+VrSQRLrY+Ulr8e7qJCFlnRRf+lURbccuFbsOB4mP/SqIZsNmizlfjxXTt5+RPY+shAgR8F4D4dxhpJgy019MH9xUONUZIoKTMsWOUQ1F/yXJQkpeI95y7SV+vnNPRAaNEU0rtRTDflgg1qz8QnSu1VnMum64Mrl1/EfsP2d5T4QULeZ2cxXDt2YVE4/G+28+1hQRkWweD/LkiGP/z0PY+35ltM9GZMnFhVL+ZZnvWbRk1J0UPVd0cx0utmYp1w4hDPPSUr4Y7ockks4vF8M9ahfsoUzb/+xXPEPZvTTYF/mcyhIpluJdSlEcU6nPtMsh4tPmjqL1x0vE2tBQ8dMb9YVb/y+F/7LNYvOPA0S9Zl+JiDyZ9U05KVIuBZvE/kURNHKA+CosXUjZUWLxQA/RcfopkVW0NCEl7xDj+n4kNsfqRN6txaK/s7sYeyDb4p7I11WFOEhfJvrXeFsE5RcOmbiyPj7Mc365OBYbY3GdRsjW6OMi3uJ5JoiIgPdEA+cOYuSUmcJ/+mDR1KmOGBKcIO6Z7v22UzK1O1vcXDFKDPe/LLKkWLHw5RdEhxmXjWNXirW8FilZ7BjXV3y0OVbo8m6Jxf2dhfvYAyK7FNcLy+dhkltKYwuFs39C5F9CAaDjSuBswur1opWTBnuPYYzrGUtAwH7yHGw4MWMIEwKjaD5+HG0Lb+E01Gzei+aulfF7bxITxk1mqf9Q7Hdu4qijD6+0c8euQS8+Gj+N+V+6ETg7jHq9WuGkscdj2Dh6xgYQsOcyy2bsxf2dvrjYaqnXpSONH99qabXYFt7ylUNrmz/PyF/mc8u3P54OGlxGreTk6g9pbPj+ke6K/Fj783CwOcGMIRMIjGrO+HFtDRqBFLWMHyN8GdG7Nra2NXixad2Ct6W0aIsmQrn8iYAUJWshLsLWbDwpah3LIh6SvH8dG07Y0WNUL2rnZhk0ccDmxAyGTAgkqvl4xrW1V9iHAmwq0nzwRMaP+5rlSz/BaUcwh/VyBmPzuZhibk9+QJWmvWnj5kDDfuP4ZPBghvdxJ+HO70ZfWrI1iw+JqHXLiHiYzP51Gzhh14NRvWpjuEzzsdLR625w7MR9arhWRuPgx0t+5bF160yvLv0wsj+/UlP2PDQ1m9OruSuV/d5j0oRxTF7qz1D7nWw6oqfF6PlM7prEvu2XyNCkkfygCk17t8HNoSH9xn3C4MHD6eOewJ3fDVcmtw4Xyje0vCdGKMaj4UcUcmPVJjdXJh4UEAKKtUTaycRF3g2F/LMz3zPFL7Ir1w6jD2Es5oshGmr49qZVvqpbvq1LeYUzzJHfS4P4k88pDdUsxbummsKYOsU+q3j3pm19e1zaD+a9V1/lw9eakWnvx6gPXuf1Ef3wTrxDdI7M+mrrqObzilHsf+kWwuywevRq5YTG3oNh43oSGxBAUShJ3Fg2g73u79DXxRZtvS50bJz/blfxe6JUV62IA7m4MnpKMfEhm/MdaZm6zMI6TZGr0dacZ02a92qOa2U/3ps0gXGTl+I/1J6dm47iaLL3kxrsNa/dj07zy/xb+Pb3xEHjwqiVJ1n9oadR7OquBFpci3RjGTP2uvNOXxdstfXo0rExWijd9cLieRjnltLYJasB1qNwE5JDyr104uMSeZT1eIFa6tStRXbGQ8r392fP3M7EBbxBs+5fcShRZiIF52/n6Ul9GwkdYGNjg42NJv8hKZ64xEcUdV+HurWyyXhwk+u3dUVGXk1hVwpIpCanci8pKf+LM9oa1HcSPDCcktJYD8vT338PczvHEfBGM7p/dcigEeju3iJGsrEwvgEKFuIiKpqNJ6WlkirVot3goQwdOoZ/Tf+WD9tUMmjSH/89c+kcF8Abzbrz1aFEg/6Kx66BO3VsQcgajM3nYoq8PdnYllzO1hahNz7/imbxkUdaaipSrXYMHjqUoWP+xfRvP8RwmbJjaZsy4M1aRGzYS3T8ScITW/Fu//rYYpMfS4/tzxYpDEY869sg6fRk3tlDwMIInPv0pWhphmddDltbgfHSJIV1WN4TIxTj0fCrXwpj1bY2HuzwadsSp5gLXEgxn4skSfJma90thfxT2DNZJMXaYfTlNov5Ykr+uUMxbWXPUGEvDeJPGSvOVnZMo2eYYWPQRmNbUBMBtBo0QqDPU1ifSexL8XEkPsqiKJTqUis7g6JQ0nHr+m10ZgdqaU+U6qoVcSAXV0ZPKCY+FHIei+u0FivOs4D8p9nh6VkfG0lnvvdytbtVDsmp90hKyp+YtkZ9nMQDo9i1fGagu3Wd2zqDGCn4X7JjWrpeWDwPjOanNHbJaoD1aBB6hF5vNKmcq+vZfKYcLXp0QBzdybGH5H+Gnain+6tdyNoWwtWOX7M+IpypzqGsDzN59SKyyX6U32Pe7Ts8aN+T9g6A4eLtW9Cjg+DozmPkdx9Por47r3bzw7dxMnuDDpGiB3LzyMvNJQfQlHfEISuVlEcgJV7ndlo2ubnl8GnjR/yqqfx8KpXctHMsX7SDBL0GGxuJvDw9GVmN6CY3VpcstoVcpePX64kIn4pz6PrCJQBoGzehftRGFh9KRK9/wN2Y1Pwv82nK4+iQRWr+RLh+O43s3FwFC3GYQY+pZuPZebXG59Z8xs/6lYScXOL2zyMwLNOgyTZCrnbk6/URhE91JnR9mMI+GAxTwKPzF7nfcyDtLiyQMRjHsUVm7RobG6S8PPQZSRz4Wd6ebCnuUs3iA7xa+3Br/nhm/ZpATm4c++cFUrTMXAVTMzh79ub1LuW5ckHDiPUhfOpd8LaYYfQrnUf+E8nOfpQ/57zb3HnQnp6tLrDgmwPUGvQuzctncD9bIHKzyNZZWpmd4jostTRCKfa7lDfY/0e4tJQZK8Y8HkBPysXDnDZRUVd5bRJftjrL7K+3GVmqH13bxpqDMWSdlImLPHe85fIv96TCnhmO+Bh7xdpRHoO8fORCy2LzxTAe07kvGZy7Yq7JnYTyuT2muJyS69EY+WcU16dRLZRDcX3GsW/fogcdxFF25m80uvhE9N1fpUv5x8/Q4uXbmOS9QRzKP1Dy8nLJzbG0Jwp1NVshDvQ22Eh55OkzSDrws3lcZWUbvDNYXHxoZXNeeZ2PuHNsH6cTTO5GiqkJxe57ASI7m/xLWB637zygfc/25F/CilrL1u6T9WnjF8+qqT9zKjWXtHPLWbQjoaDT/LbKaynsGq2XL42T9xJ0KIX8NMwjNzdHfkwL14tcuTw3Oo8CCuanNDZKNeDBHY7tO43pEViLbcMKuqkbwq4SE3uLswf3sH3jYqbNuEmnKUNp26ID3vdW8d9FJ7l75xSXKwxm6tgX0YR9z5i558nJTOSeTUve+aAzbo+/+CbSOL4igP1xeWTFnmP3UYlBU//BS5qrbF6yiOCITOq168iLLjXw7uDNvVX/ZdHJu9w5dZkKg6cytpUbL7aqSeTCr/g26DR3k2O5dT0dx4Yv0c23EfpLc/n3zJ1clWpTOeEssVpvuo16j9aJm5g2YRJztifT/vOJ9K1THnF3D/5L9pLj2ZfRw9uRbDrWixrCvh/D3PM5ZCbew6blO/Rp71a4OZpqvjStEMacf0xm8YkH1Koczxl6MLafJzX0l5j775nsvCpRu3ICZ2O1NGndnf4v+5hZiBtVKriT1Gdw1HS8Hi/T1iuF0BkT+fK7Xzj7wlC+GOFNUZOjfD9mLudzMkm8Z0PLdz6gfWMXmX1oQuv2nryQdYnQ4INcj7lC2G9ufPrNULyq5xG16gdjg7FHW+w3TcTfZO224i57/JewN8eLvi/p2TrD2J5c1+0hh9dsJNLGj86NM9m3KpAdtyvRvkcn3J1sAT0ZR83jw6t5W7xSQpkx8Uu+++UsLwz9ghHelQrusW0onxtlZmr26tac2/M/YsqaMM6EH2b3llCOxlXFs8pF1i0Opsj+bE812fNoQ9UrqwjYH0deVizndh9FGjSVf7RzRRe1ih/mbuPa/YpoE48Qcb8ubg8Ps2ZjJDZ+nWmcuY9VgTu4Xak9PTq541TwkZdjE/N1vG6zj8AFwcXuSdqljSwMCOGafQu6dnyRjt1kYr+FE9rC/fek75ghtEkzHmtY3XP81zQe6iaz9uOB/O9RP4a1NfhitW1N2gzoisOvs/nPT5s4evosZ8+cJYpWvNffk/Llc83joskb/PN9Ly6b5l+jrrRnu8meedGjpxdVNYA+jUsbFxIQcg37Fl1547UBMrWjBU42tkZ5OWZIG9KU8gUM4rExzZ3OsmbRFq7Zt6ZnZz/adzI1fr9O3r5AFgSbn+GrY96lTbpS/AF21WRzytPpAsGLijvb+1wNWSI7Zo8eLah01bxP76qX2bBoA+ckLzo1hWNrlhB8QY9PxybkHlrF4s2X0bZ8lY+HtSfDaH3DeCE6hCWLDGK/hjcdvO+x6r+LOHn3DqcuV2Dw1LG0cCp6HVulWStqRi7kq2+DOH03mdhb10l3bEiXEcNo/0BpT2yo6PMSjeJM6mpdJ3LNcseLHn08ebDPnyV7c/Dq+xL6rSbGdI9W1IpczyJL8SFS2PXtaJOcr85LPfvzso/MOh32M7Hbe0y/XIehbzWjwuPzxE62JtSrmsi+1ZuKOU8QacdZEbCfuLwsYs/t5qg0iKn/eAnN1c1me29Wuz9oTds2jYjbNI0Jk+awPbk9n098GYdrG1gYUBC7fV6lfzOZtRSeGWiqNKNVzUgWfvUtQafvkhx7i+vpjjTsMoJh7R+U6HrRwVNjnudG59GZl3IOFM6v94A36VVHZuw2Xah/b73Z2XdkGW8Mns7lOkN5q1nRCVhL2Vt0pZvM7PYyt6dcYkEP5c+r/3xI3JjRlb7R3xA5v7v5N5lVyh5dFKtnheExuDuVH9znYUYqN4I3E//x/xjvYc0fjUncnNmNl29P4dKCHuqZqag875Qm53MjmP1jNCMnv0lV08dKgXRzJt1evs2USwv4S13CniK5EbP5MXokk98s+QkofCfkSZDQ6/VIZu/1/PnRSRJ6If/5oUrZk3PEn+83n+dmvJ6qLnWpWSGLVOf29KyvUIxkkPR69H/FYFRR+QtS4pyXognbeINWHwwskxsQACQ9en3+9xhVLCNFh7HxRis+GFi6E7CdOnXqVNN/LD25xIRv5UhUBjmaajT2a8wLf5E7SX3CGbYevEKGrhw1mzSjQVXTX49QKWu09dvSxvEyW9euYcO2o/ym8+adsW/QxMpfnsyNCWfrkSgycjRUa+xH479KMKqo/EUpcc5rnKjn60v9ymX0ejo3hvCtR4jKyEFTrTF+jV9Q30G1gMapHr6+9SntEZT9xzEqKioqKioqKlZQynsXFRUVFRUVFZUnQ3Nt13y+X3XhL/75l56UX+czfe1lZP6StQyx1kxYEkpiMczk1sElTF928imvs3ietTH2uUR/H6tyrUxi5u9ASfLCGOvNwCVASuXS1v/x44aopyb6UuRRDBeOPbahH+N4+GkibySS+Qd9fe2p7KdVlD4GnhnW1oG/EZqIjfP4+cDdv/yGaLR22Jezfbpv/VhpJiwJJbEY6lOjidyygNk7bj7ReZraMEtGSYyxzwNla61VQp8cjXKu/dlNsX88JckLI0piBi4B0r1oTgT7ExgWL3O+1lOq3HOoST2HA/yr19t8v+82CXHXObb6C172a817s8Pyf+/lafGU9tMaSh0D8IflvSnF14G/J5oufi5P98L8XKChavvRTBzk9eSyneKw0kxYEkpiMdRUa0LPVm5WPVcRMxtmSbHeGPs8UKbW2mLQOPuglGt/flPsH09J8sKIkpiBS4BtLV86edc0+OXUUlDa3NPYUbWJD/UrOOHT+23eeOM9Pp66gn3r3iXpv28yYtntUlykreQp7ac1lDoGTHPuD6S4OvB3xfafL7tPXZrQls8GeqJVMpkWkJt4hpBlR3jkLhG2IICQ6474NNVyYc0CAnfcpaqfL7UckLEs5nA84AfmrgsjvooXzeqU485Of+aEJOPexpNKiTI2RTljoXP+ZGQth41yC6yVMibMKnnEhW9gxQkbWvo4ozGdn4kJMDchgk3Lj/KgwnXWL72AU+umVIw2t02WyExY4SSLvwlk79nThB//lb1bt3I6z4cOjW3k91zBYpglM6YhuotB/HStCcPqX2Thkt0k1WpOkxrlFCy1pobeWsQtG2Fiw9xe7Hiypk9MjbEF5CZaaQ81N8zWsM8l8UwIy448wl0KY0FACNcdfWiqvcCaBYHsuFsVP99a+b9qaGaZLEdixEZWHNNRN3Mf8xbtJqlmC7wIN7PWVtUXY7fUJ/BrMXFc1aCymNtJ4cHJlRTlWkGXpTHFJlmRhyjZrPN/oVVxjY8pY3s06Ek9v5llK0PYfz6OuN9isKuWzs4F/myOcaWTdy7hy/2Zt/c+Hu08qaJkXS5lXiiagbUW5m1ihHZ8IZVdAXJzbozu+ArWZ7Sja/ZWAoIvINXzo0FV7VPMPQPyrrD5p0NUfu8TetfNvyxra7agzt3FTN8o0W90d1w0FtYqZ3/VyM09/7my+2nBtCxbuz2qI2RqbrV7MtcF5GpjT153PsZCpdiUEggP2ciOvQeJzHPDx/E8s03yXvYaZEiZmcGFQR1wJ8XKmiZ3rQEFy7GV9c+7hrxNvPC8irFLu2efMTdHyxjHrSJ6bjfhOnyryFI0mRYgpYnLIZ+K5o6txcdL1orQ0J/EG/XdRP8v/cWyzZvFjwPqiWZfRYg8BdOe7uZ80adWN/HT7fweU9b/PzFxxwMFm2KmuS1yZ1LBPJQsh0kiT9ZamSOkxHNi+XAP4fz+ZpGlML9CpBRxKfhj4VehmRg2e474eux0se3UUnPbZEbJzIRS0kaxbHOyEEISSdvGCK9GQ8SGWEl+z5Ushgo2REMyV74mnFqPEQFrQsWmKT2Ea7efxC2dwtnKGRetsGEWIWf6jDAxxj5GstIeKm+YDY+/LEI+bS4cW38slqwNFaE/vSHqu/UXX/ovE5s3/ygG1GsmvorIk7US/2f/ORE0pqmo1HKY+GHBGrHyi86iVudZ4rrO2Fprjd1SKY4NkbeTSsIw1wwpmSn2oBV5eFL8rmCzTsqzvMayt0dLIiH0czFowk4Rp9OJ+OAhwq3BWHEgWxJ35nQVdUduF/kpO0m86DdRhOco7GFOafNCyQxsad5yRmilOevE1e/bCZeOo8W0Of5i2mA/UdVtmNiYpJDjT5x7JmQGi/eqe4kJx3KM/jl58cvCvvxrYmWGpbXqZOyvV+XnrriflmqrQu0OihIXTWru9ovrZK4LxRhelWJTd1OsGDVc+F/OElLsQvHyCx3EjKs6o7yXvwYZZ6l5HCjEqEUzeFEdyEyzsqYpxIKs5TinJPXPwnkJBbv08XhFc3RpMHpXSNZk+vhBTRW8e7elvr0L7Qe/x6uvfshrzTKx9xvFB6+/zoh+3iTeiUanYNqzbTCCLwfFs3zhKXL0sWw5XYU3epZXsCkeNDMWTn6lRsE8lCyHR8iWtVaCxtmPvm3dC962k59fIZpq+LzSDne7BvT6aDzT5k+iwd4V5rZJqWRmQk2NN/ng9epI0Wv5v8+P0yvAn0EuGtk9z1OyGFq0IQLYYFu3C8MGv8pr73anXtxtoiWFs5UzLhpiaTw5k2kxFlSr7KHZ8obZRacb0Lttfexd2jP4vVd59cPXaJZpj9+oD3j99RH0807kTrRO1jLpUr4hvdu44dCwH+M+Gczg4X1wT7iDkSAX6+yW8nFsaEKzZCctDmtMsfZW5OHvVFewWR88Z3mNZW6PlqJY9mMEviN6U9vWlhovNqXgxTparW3RRxjltAXjyO9h1qVS5oWkYAa2NG9ZI7TSnMn/qfPmg5k4fhxfL1/KJ047CD6c/XRyzyr05OXpwN4BB2FhrbpIGftrY/m5K+2nxdqqULtDLtLQqOZ+iVvITzLXhf1kKtVGhdjURf7C/Fu+9Pd0QOMyipUnV/OhsWJd4RpkbHw2jwP5GLVoBjfoU1PF26qaJh8L8pbjBjdKUv8snBfIm6CLM0eXAqObEFmTqREGFks02BpYTLUaDULo0Sua9hzp9NkYqgfNYUN4MFdd36SVXTE2RStMqfmPGFoOldAYzFtpfgbY5I+dP7SCbbJCycyEAOReZf7ofxM9JJD/9sz/dTm5PVe0GFplQzRAa4utXock5MeRNS4aYmk8JZNpMVi2hxZjmLUxMGBqbAvOB0CLRiMQer2iZdLoHMrZYiv0Zl9Ks8ZuKR/Hho8rxItVxlaMY0Zxf63JwwIKHnpss85NsLzGMrdH6+5yK0YyspcWj/wetkwqZV4omYEtzVvWCG0aNQrYNcC9ji08rdyzigccD7+MfevOtClnYa1Sqqz9VXbuSvtpTW0tIP/5BrXbpOYqXRdylGqjAlJqMqn3kshflpYa9Z0Qxop1xbEM0948DkppBjfFipomHwvyluO0lJLUP+vPy4xSmKOVMLgJUTKZmlzcLc1SybSnA9tGH/B51wi+/ugSXoM8sS3Wplj8WHKWQ8dirZUFFDM/Q4qGlrdNHjpcMjMhZHLy+5HMFv9k2b/bUEGK4dz5u7J7nufuLWsxtMaGKP/bcwpnG7fFzLiIpgQ2zOJMn4pYKKbFGGYpPiQABbNlMZpbQ0trdjPLdkuQi2ND5OPFUHRpSslNsVZsBMjarLu0tbzGMrdHaxvTpH4UGxcfIlGv58HdGFLzO6S8owNZqSk8QiLx+m3SsnPJVdjD8Hrydk+LeaH1kjdzW5q3rBFapzBnEx6d5+L9ngzsoinT3MtNucjh03GmowECvVFI6EnaM4Vpe+vxj6nDqOdgYa3lfGTsr9Hyc9c1kt9Pa2urTO12MApp5etCJSXDq0JslvNpg1/8Kqb+fIrU3DTOLV/EjgS9Qc5l0aib/FiGaW8eB6U1g5tdISymsnx8S3jKWI5TPUpQ/6w4L2UTtFyHpcPW24mpIdfsadG1E80q3TY3mfboiVdVDfCQqNDFLNhwDsmrE005xpolwVzQ+9CxSS6HVi1m82UtLXv1of69IDPTXr5t04FGdVPZFd2e/wxrSnnAsYm8qVdcMTEWGnzhR95y2JZqDvImzNZtG2J3fg2LYlry+ZvN0ctZIAttoOlc3ryERcERZNZrR8cXXajhbW5OHdHcjt9KYCZsZ7OUYf84TdO3O6K9foYTO5ayI607bzdLNNvzJm/8k/e9LptZDBt1bQnbZxqP6dWDnl5V0QD6+5fZvDiAjZEafDs2InPfagJ33KZyh170c0kwG8ejrT2bJvobG1nd7bm7pxgbpsF44EiTtqYm02FUv7vJwBjrSfWCdwoeRoWyeIFle+hHH3Qk3dQw65HAtsUL2HBOwiu/MUuCL6D36UiT3EOsWryZy9qW9Hx5IH39TMyWr9uwL3ABwZE2+HVuTOa+VQTuuE2l9j3oVT+90Frbrc+rvNK0eLtlPuZxbIicaXdY7btsWhhAfq51xPPxppTYFPsW0qEllvOwux/JoYFmNuu2dXwsWFefgj1aUw3fphUIm/MPJi8+wYNalYk/Az3G9sOzhp5Lc//NzJ1XkWpXJuFsLNomrXm5/8tme/hBuw60ljGLWsoLNFVoJmvm7sLYYe2V561ghG7sIjfnNnT30HIpNJiD12O4EvYbbp9+w1DPCjjKGKJLl3vd8DoziTf+94h/DGtbeF5k3uLXNUtYvOUsCTmPuPfbSfZvXsryoxUZOm8R/2jrhI1srhqs1aYiPi+Z2l/70QDzuXv1fIu3e9U2309LpmWl2v2ZF/FbTGuu3HWhBVWqKthlX+pE2ypRZrHp3W0U77VOZNO0CUyas53k9p8zsW8dyhvaqkcPp12y+VhFKSEfB6Uxg3u0qkXk+kX5daC1M1GbAi3WtF596nMvyORa49WTgW/2wcPUcty4mbnZV6n+dRhAx9ytxZ6XvF26HlUT97F6k4w52sA4bi1/+M+2p2+dws+Vv2ByN0fTh6ymNJbDe4v60u7s51xe1Mf8LwFUVEpIWcTxU6XMbNZlb4+Wbsyga99ovomcT/ey6FDlT0NparfKX5s/6M+VJW5t+YEpP3zP5H01ebPzExZuqy2HehKOrmbdqSRSHzjQoUer0v0JkYoKlH0cP1XKzmZd5vZonYSkF2bfyVH5G2B17Vb5u/AH3YSAyE7h9h0tr036iCYlfLvGiNwYTh5JpV4zGy4ejCLD9HEjBHlp19k97zs2uX7BnLeq/3ELVvlLUmZx/FTJJebkEVLrNcPm4kGiik+SYtEnnCUsrR7NbCIJu/XI9OGSo0/gbFga9ZrZEBl2y/RRlb8yJardKn8X/vCPY1RUVFRUVFRU+CPfCVFRUVFRUVFRMaT4m5BHNziyeTcX5QxID2+wZ8EsNlzV/S3Mn1LqJbb+70c2RD01C8NT4ekZLp/ETCzf9tGNI2zeffHpCrf+xOjTLrB14bd8OcmffXdLvutlifFc0rlxJIQ9kammTysGPam/neRYWL799VjEzYIf43rInXPH8o2wx6+Q+AzS7enlzB/Dn33+ZUpZXJv+jObbp3F9NuyzDCn2JuThvh/4YnMqlauYPk1P/JVdBM4M4Ei8BH9586fEvegTBPsHEhZftgfwVHnKhssnMRObt33Ivh++YHNqZczC7anybGyaJUb6jYX/t4jcd//BW9X28m1AuOkz8tGnkVJiDWsJMZ3L/xYwY1IIaZWdTJ9ZDBqc6tQhYekQeoxax4O6rlTWADhSu46e7ZNncKaKK9X/6O/dPGnO/BH7XxxPOv/ieNZrKxVPfm0qifm2VBbkMudpXJ9N+yw7ipmVjtv63sxfNJj6ZoVAQ+2WfWj5WJ34lzd/2lLLtxPeNU1/L+I556kaLp/ETCzTVncbfe/5LBpcv1RWzNLyrGyaJUUfu5NNFx2o7ViRVv/azpEfOps+BdCTGDqVmSXWsJYM07kcGOXDywsCeNetZCdn61gLXy8X7Oo0oZmzQ0Ex0mBfww/v5j60aORUith6Qp4oZ/6Y/S+WJ5p/cTwHaysNZXBtstp8W1oLcpnzNK7PJn2WIbZTv/54qqFh0NetEhpAF3+Sw2eiuHjU2CooJYYTtHIT+0/+RtTpCLS9x9KvdnyRLdZZA7nRHAkO5UREOGfiJGyyM8HpBSpq5eyoplMqQp9yhq0b9xN++jTnUirSzPEWq+fLGSzzrZv55JKgZAyUtbNaaQe2SyZsxXoy2nUle2sAwRck6vk1oKo2l4SITSw/+oAK19ez9IITnZpWtGCrLKAYS6GnYxIRG1dwTFeXzH3zWLQ7iZotvMkXH8obFYtQMFxq5ayPwtjmWdGXhtU15nZG+yQTq7EvTjc2sfqULS28KxN7PIigcxoq3FjLvLWneOTii0f1/D+INuurUi4xx4MK2jqjQUf8ycOcibrIUQNrrvI5mqzWrH+NvCnWxMx8Tsph1/8bY2DTrEn8dlPrZdE4+oRfCfhhLuvC4qni1Yw65e6w038OIcnudPAs+Bn++AiFGHUn+4zSeuRsmwbriz3E0vmrCD0Zi55HULsFjSolmqyvOg+OzmTYqLlESvboHVxp0agq+nh5O2hu9BGCQ08QEX6GOMmG7Ewor7vKViOTqRvJO43nVTnRfC71HNOI3H8e2xbeOCtaV+UQpB1bzqKbvowb9hKFvxFGDhf2hlG1Z0/cpATFPCgkW8kYLJeb1WRrgFzO9HzdmWML5c4yv94Yx50Pjudnm+x/JRJlxzKcuoxVtlgjuEYmh21k52+VJVjW+GxaE3yofMVkbTXj2W5iX9XLmHALxOfy45RLtHi2+nunWDFrDqsO3aGCZwvqaW6yPeBndj1sQNsasWYGWLM5+DpxY5OhlVr+GmB6rWnesHrRJDA03+YbsHWmeVX9AUdnDjOyIDeyv2Nis62AKHYcQ7KJkampjXLPK9SXgpi05vpcEsuu0jXfXWu+B6bBbS1yhkElq6CUvEOM6/uR2ByrE3m3Fov+zu5i7IFHJubPdLHzk9bi3dVJQso6Kb70qyLajl0ujsXnydpRTWSFBqSL4JHvi4UJkpASt4rJ3+0TQigZLItaSSmRCsZAeTvrqUwr7cC6q+L7di6i4+hpYo7/NDHYr6pwG7ZRJNy7JII/9hMVmg0Ts+d8LcZO32bBVmmMrKUwPEukRAaJMU0riZbDfhAL1qwUX3SuJTrPui50CkZFgx4VDJcK1sdkc5unuZ3xv+LEBWOr8TfrDorlwz1E7eFbRWZChAh4r4Fw7jBSTJnpL6YPbiqc6gwRwUmSTF8zxOX484Vts4T8uYTHKp2j4VoVTJK5cqbYcBErY2Y2tGnKWy+NRhM35/cRtbr9JPIluili/f+bKIwluvIxejxeeT2WxxUi78IU0arpBHEspzjbb7pY1r+GeDsoM38mCnks0neKT1q/K1YnSSLr5JfCr0pbMXbpLnE4yNhkumXtSNl5Gc8lSZxfPlx41B4utmZZt5YidOL6D+1Exe7zRKzRk9LFL+O/EL/mSMp5UPhcSSQoGIPNc3O7bKydylLKGfmzzLf8ysSdznD/5ePaqN4pWWWLMYLL5nCe0vwtmXOtrwnCKLZk7Kt37pnZx3cmFR2q+Tj/EfvPWTrbfJI3DhH1Wv5HnM8TQohkETx9ljiZZc0cvhHrDi41uDYpnYnctcYQYwO2cl4ZWJBlbN5TIpItjFOEpFhT8xRj0qrrs8y8lC27Sn1mK+9BKdCYGwaFglVwD5eXzWCv+zv0dbFFW68LHRtrwdT8qbvBsRP3qeFaGY2DHy/5lcfWrSNtXrgma0cNMNR3GmGLg80JZgyZQGBUc8aPy/+ZYmWDZT6aak3ljYEKdtaAgw5WWEmj8z8LtKlI88ETGT/ua5Yv/QSnHcH86ujDK+3csWvQi4/GT2P+pAbF2ypNkbMUoqFa0960cXOgYb9xfDJ4MMP7uJNw53d0skZFg/4UDZcK1sdcU5unrYydcQyt/Yytxv95twu9W9VDA2hqNqdXc1cq+73HpAnjmLzUn6H2O9l05KFMXx/iWcu3sC06+XNZdLaR/DkafSgrb5J0j5IzxS7ibEMFM3MBlqyXYEuDEV8yKH45C0/loI/dwukqb2Ak0VWIUcW41FkzrjHW2H6Ls4M+vHGME/dr4FpZg4PfS/iVt8Wtcy+69DM0mU7m1W5jLM9LUwPf3q14nP4lXYvGViMjz9CjR4OmuDwofK6GmgrG4KOmufmlm2ysBey5rJAz8mepFHfGclb5uDaqd0pWWUUjuEIOP1TIeYuWYIX+zGqC6StcGfvqgyom9vHJvFLj8dvTcuO4UL6hpbPNp/qrn/JeXhBLw7KR7m7jpuubtHSwZg7/4d0uLxtcm5TOJE/2WiOPcl4Zpp+czbt2bq7V4yjX1GyFmJS4YcX1WW5eypZdpT6t2wNr0ZgbBvMUrIIPuHn9NjpzdaKx1VPblAFv1iJiw16i408SntiKd/vXx1Yqxo4qS0X6++9hbuc4At5oRvevDpk+QRFZY2Cx45fASlqAXQN3CiSZ+WZYmwKfoxVmTuswsCsC5WxtizEqGqBouJQ3k7apbWrzjJO1Mz7Qm1uNDY24Bf+S/192nnjWt0HSyZseH+gN2hZzLrLnWPQvoGSSjFUyxZqvwRCrrJeOnfhsTHWC5mwgPPgqrm+2wkiiWwxK67FqXAOss/0q20Ftmg7gzVoRbNgbTfzJcBJbvUv/+rYmJtMSzMvABGp1GwBsqVipImTcJ93waVIa90VlnDQo54EcheGXbwzWmeWmQqw9uKmQM0rIx52xnFVhLIV6lz+eJSO4Qg6XV8h5i7VIoT+zmmBi+FWyr5rETxEK41Sy8mztWjF6hAuhCzcRti2JxgPqY2v1HAxqu+KZlC/BtUY5rwxPVt7mXbsE4zymMKgLaqrp44/RccuK67P8vJQsu0p9WrcH1qIxNwyWUzAYdsPPtzHJe4M4lK9OJC8vl9ycgp4Ki40WZ8/evN6lPFcuaBixPoRPvbXF2lEf3TnGvtMJJgtIZVvIVTp+vZ6I8Kk4h64HReumCXJ1r5jxwQqVoQmPzl/kfs+BdHEAIzOskpnz0R2O7TtNgskpKVsK5Zchb1S0whiqYCYNi9lmYvM8iY+MnTFBL7dHhjdAguzsR/n/P+82dx60p2f7Ssp9PW5b3LmYDmdGOdn+014sxhRrsoYim2YSB362xnppS6MPPqdrxNd8dMmLQZ5m78Upx6jseqy0bYp8rbcA7FsorU+DjY1EXp6ejPRsmsnmcRfKa53x7P06Xcpf4YJmBOtDPsW74JV/0fYUMy+DuTwmv51Sm1xSLh7mdJx5iarWtj1ed49yOKboseyrW4ms2K7w3QjZbTNFxhjc3jQ3lWKtm59CziidpXzcJegN9j+rEd3kxjJVMiNvlZU3givkcI5CzivVokIU+jOrCWGAwdqSDvCzgn3VrESA8jgKcldzbHEfMpo2xybzTXobXq5evAHWbA6P/0Hp/LtkyVxrlFA2/JY3sCA/cmkpY7ONkR1H/vqHQk11VIhJLV5WXJ9LZhlX6rOYPTDtwgpsd67+cKqpYbCKrNm2FW4vtqJm5EK++jaI03eTib11nXRHdzwczxMUWGD+7FiV8BmjmbImjDPhh9m9JZSjcdV5qYMvL3X05p6pHbWFA/snduO96ZepM/QtmlUomJk+g6Pfj2Hu+RwyE+9h0/Id+rR3w66anMGyNZ0b5n8xkPtXCVkiYwxs/yr/9347mfFt+c0qO3APvO2iCA0+yPWYK4T95san3wylce4VNi9ZRHBEJvXadeRFlxp4y9gq64Z/Qbf3pnO5zlDeKlykkqWwCZ5OFwheFEykjR+dG2eyb1UgO25XosOANuRu/bEUxtCX6Duwr5n1cVjdc/x3zFwDm+dIevXtTCMjO+ME2t/fbmQ1rpUTyYaFAWy5Zk/rnh2pfnUNAfvjyMuK5dzuo0iDpvKPttWp7POSSV8TednxmkHbPrzav5n5uTSMY4vsOfagh/vjPwW1oaJM/30bN5MxxX5Mg99DzMzMRQZbL/q+pGfrDCWLtAEOjaibuovo9v9hWFPztJON0XpVSdm3WmY9PWUNx0bj3o9i99IFLNt7GwcPXzx9e9LXz3R9Y2nhpEXc3YP/kr3keHajz6uv0NQsj1tQKXUX346ewpqwM4Qf3s2W0KPEVfWkysV1LC40mbryQp65BdTrpbrc2bSwaC7ujkRvXkjAlmvYt+7FwHpJ5m26eXFm0hv871E/hrU1/iKeplZr2teI4OfpSzlw8jgHtm9iS2R9Pv7qTeo5wP2rISxZYJ4H7Xt0wv2xrlOkcXxFgJkx+CXNVfPc7CBTg1q58aJCzvRpW8X8LJu8RN8Bfczjrk55g/3vy+jh7Ug2HauFk9G7LLJW2WKM4F0+GEy7dBNzq09dhflbsgQrGJ/NasIHtHerULQ2r768pN/KDEP7anod6mYcZt2mIhOu4Rdg5cZ53WYfgZbOtgCbCg15IfY02nf+QY+aGrApT66pDd1sDrXIidxQaDLv2dmP9l1lzv9FDWEy15rH6NMusdHAgP1ix24y18cWOGlFoQXZs+8YhrRJM7bZDqvLuf+ajlOLfXLXPwRpx1fI1NRqOMjVlyZtGPB6T8vX5z4DeMXXSstu+168+VoPmT4b0mX4B3RMl9kDs3fBLFP2P9uui2L1rDA8Bnen8oP7PMxI5UbwZuI//h/jPUxfNT4ml4jZPxI9cjJvFtxL/BXJjZjNj9EjmfyXW6TEzZndePn2FC4t6FEmptXnm3S2TvmZyl9M5nmV6BaHLmo1s8I8GNy9Mg/uPyQj9QbBm+P5+H/jUUzR55kyMwb/8ahWWRX569/fp6Za/NPnkpJzxJ/vN5/nZryeqi51qVkhi1Tn9vQ0/7GRAiSiwzZyo9UHDPyrXZsNkKLD2HijFR/8RRcp6fXolT+w/Gsg3WLLD1P44fvJ7Kv5Js+1RFeRHI74f8/m8zeJ11fFpW5NKmSl4ty+p8zvAf1ZKDtj8B+OapX9m6N8/ftb1FTAdurUqVNN//FJ0NZvSxvHy2xdu4YN247ym86bd8a+QRMH02c+RoNTPV9861cu+zui5wiNUz18fesX/CrkX4vcmHC2HokiI0dDtcZ+NH7hL3rfLlI5v20L5yu9zb/HtSn44uSfDS3127bB8fJW1q7ZwLajv6HzfoexbzRBMUWfa3KJCd/KkagMcjTVaOzXmD9N+OXGEL71CFEZOWiqNcav8Qt/6Ve8KnLIX//+NjX1qXwco6KioqKioqJiBX/K13IqKioqKioqf37Um5BnQOatgyyZvoyTZn9b/DzwkBt7FjBrw1X1c2oVFRUVladKmd2EPB/2QFOeQ0OqPpXoyC0smL2Dm8/hVV4ff4VdgTMJOBIv83frlnk+40BFRUVF5XmkbG5Cnht7oDHPpSFVU40mPVtRQuHoH4amdkv6tHQ1+zl8q3hO40BFRUVF5fmkGIuuuSEvNyGCjSuOoaubyb55i9idVJMWXhBuhT0wT66tdw3KKdkVjYytrWlqqGNExgwpUjizdSP7w09z+lwKjrXiWDZilIEhtRGVEs3XBHpZi+xjrDHsOqcpmVM9qaKRSAgPYeOOvRyMzMPN141K+osE/XSNJsPqc3HhEnYn1aJ5k/y9kNt3S3OUNXF6VKeciTX2glNrmla7Z26XBZASCQ9ayab9J/kt6jQR2t583CKZ9dauy8eR87NN4sDM9Jo/VvHGShUVFRWVvw1WW3TDY0Vk0BjRtFJLMeyHBWLNyi9E51qdxazrOsv2wJOJim1l7YrnzW2nRcibIdODR4r3FyYISUoUWyd/J/ZlCyNDquyaTmUJkS5njCxAstKwq2BODc/RiZsrRonh/pdFlhQrFr78gugw46oQmSvFa06txZiANSJ00xTRw7Wb+OmWwr5bnKOSiTNB3DO1xm6/KG9flZLFjnF9xUebY4Uu75ZY3N9ZuI89ILJLui7DOCjG9GqtSVJFRUVF5a+N9RbdRWdp1LsNbg4N6TfuEwYPHk4f9wTuGGtNZS19tXXlaSrbNkfertigGNupghnS1sGGEzOGMCEwiubjx2EsfizG+mdbjDFSU8Vqw66s2VAXyS/zb+Hb3xMHjQujVp5k9YeNAbCxrUuXYYN59bV36V4vjtvROaWco5KJ8yiOPsb7+KVbiKx9dc/lZczY6847fV2w1dajS8fGPH7fqaTreoyy6VXejqyioqKi8vejBBbdh0hG1tRy2NoKTKWHSpY+ZNsWZ1dUsJ0qmCEr9vdnz9zOxAW8QbPuX3Eo0UhpqbymipaMkSU37BYipZKceo+k/A1GW6M+TuKByZO02Nrq0Um6J5hjPvkzMzRxGu+jkn31wc3r3NYVnU+Bc1QZK9alNNZDqfR2ZBUVFRWVvxYlsOh2oby8ag8s2gMzFVyYynZFcxViAQpmyNRtIVzt+DXrI8KZ6hzK+rBcA0NqFo26KawpVc4YaYLSXApRsG2W86GNXzyrpv7MqdRc0s4tZ9GOhHwLqWkXxdkZrZijnIkzXyJaNJKSfbWbny+Nk/cSdCiFfAlnHrm5OSVfl0EcZDXqJjtWl/JydmS9omVVRUVFReWvSwksug2J27KEBcGR2Ph1pnHmPlYF7uB2pfb06FKf9P3F2ANHuPK7QttXx7xLGyMr5L8YKPYRaGI7LcKRJmaW2mHUPPdfxsw9T05mIvdsWvLOB51xt39sSPWk7+jhtEs2XVMLKj08yvdmxsjHP2D9kChrDLs9u+DbSGtuNvTuxifvtSZu0zQmTJrD9uT2fD6hA2nbFxOwMRKNb0caZe5jdeAOblfuwICP3qddSknnqGTifAnN1c3G1tga3jJ22bG0cnuRVjUjWfjVtwSdvkty7C2upzvS8KU2+DaytW5dE/viUt7QIjma4e2SzcZqUemhuR25rS1rPx4oa1lVUVFRUfnrov5s+18A1cSpoqKiovJnpGx+J0Tl2aKaOFVUVFRU/oSoNyF/dnJjOHkklXrNbLh4MIoM08dVVFRUVFSeU9SPY1RUVFRUVFSeCeo7ISoqKioqKirPBM3xsDDCwsIIOxbBzXTFX7x4YvT3r7Fr/vesupD/zQV9yq/Mn76Wy8+lSfZZoifl1/lMX3sZxa3Rp/Dr/Omsfe42T8/9a7uY//0qCo65jJBIvbSV//24gahn8Ve8D2+wZ8EsNlxVWJSUyqWt/+PHDVGlkv6VDVbEzZ8B/X2u7ZrP96su/Em/4/S0cqAAXSwnj155Dj92LYV9+7moY3+RvJGlFGfyDNBUCvs3ffpN4USF+rhWelpvjOhJjo5g47yfOXC3YDs0Wuzsy2FbmiH1aaT8xVSthvZZjdYO+3K2xbxNpUFrZ0+5Um3eU0SfTHTERub9fIDHx1wmSPeIPhGMf2AY8U/Sb6niRk/8lV0EzgzgSLz8LYZ0L5oTwf4EhsU/02S3HDfPP/rkaCI2zuPnA3ct7OVzaMimBDlQmljMjmT59GByfbyoZPrYM6Z09m2TOlaaPSkD/gp5I0fpzuQxf1x+aRr7NMDphSa0alIDh1KpU61Bg7NPF/xcio5ZU7U9oycOwsvQS2cVehJDpzLzr6RqNbLPaqjafjQTB3kV/nS6GZqqtB89kUEl37yni8YZny5+GBxz2WBbC99O3tS08EOuxVPauNFQu2UfWroqJ4dtLV86ede09DuzTxkr4uZPgMbZhy5+LhYvCM+lIRtrc6A0sZhN+PeTOfPSKDpVK7bzZ0Kp7NtGdaw0e1IW/DXyRo5SnUkBf2R+2U5+r/lU/z12vPF/fXGXOQVZq6ve2Fhb0bchBlJXQMYca/OAkyuXktD2MwZ6avPNr6tPYdvCG2eNgkl34wqO6eqSuW8ei3YnUTNf2cuwUXOJlOzRO7jSopE9d0yNujbFW2cB9Knn2bxsJSH7zxMX9xsxdtVI37kA/80xuHbyJjd8Of7z9nLfox2eVTTm8zP8AbXsGI4HBXFOU4Eba+ex9tQjXHw9qF4OyLhC6C/r2H3wMOceuuDbqCr6hAg2LT/KgwrXWb/kKDeO/pcJ8x7bZ72xvxrM6lO2tPB2RiO3l7kxHA9azSnbFng75xJzPIigcxoq3FjLvLWneOTii0f1copjK9mMDTFbr+x5eFPDpKF4cJKVSxNo+9lAPLUZXAn9hXW7D3L43ENcfBtR1SjGTM7J8QVSdwXInkFj3XFWrM+gXddstgYEc0Gqh1+DqmiBjCuh/LJuNwcPn+Ohiy+NqmpNTL2O1IlbZhw3NePZbrI3puEvJYYTtHIT+0/+RtTpCLS9x9LPXQuPbplYosuTEraC9Rnt6Jq9lYDgC0j1/GhQVStrfC6XaPkM5M3IVUmOWM18/83EuHbCOzec5f7z2Hvfg3ae5UkI38CKEza09HFGo3D2hXG39AJOrZvyWE4tP151RbNzrlJf+ngiVs+XPUNPxyQrYkjw4ORKlia05bOBnmjREX8iiDWb93DgTDLVmnhS/cFRZg4zNmRXzTY9kwomN4UyeaRRWJsV5uxaKOe8cQ6Y5lIT7M7OMqlhlUg0WWMNk9/70Seu4fOJSbz537fxLJdLQsRGVhzTUTdzH/MW7SapZgu8CzZSbk3GncnVb/M4NfqNSBRyWca+PbaXIxdClnHkkTtS2AICQq7j6NMU7YU1LAjcwd2qfvjWciiom6s5ZfsiNaJmW67reQmW40e2Fjci97yVeSO7zuKvJyXNHeTs5gWJqNSXkMm3avdk+kbuTHryuvMxFsquvwoaKYHwkI3s2HuQyDw3fBzPM9skv0pjoLearNAPhEvDT8VBAzHrY5SsrnLG2iIUDKtStJjbzVUM35olhJQkzi8fLjxqDxdbs4S8SfdckBjTtJJoOewHsWDNSvFF51qi86zrQifSxbL+NcTb+cpeWaNusdZZIYSUECo+HzRB7IzTCV18sBji1kCMPZAtpDtzRNe6I8X2fGWsmPSin5gYniMzvykiIq+wN5EQESDea+AsOoycImb6TxeDmzqJOkOCRZKUJXaMaij6L0kWUvIa8ZZrL/HznXviUvDHwq9CMzFs9hzx9djpYueNwEL7rJR0Xiwf7iFqD98qsmT38rJIOr9cDPeoLYZvzRJSQoQIeK+BcO4wUkyZ6S+mD24qnOoMEcFJmbJjK9mMDTFfb3HnYYwUPVd0c80/16wdo0TD/ktEspQs1rzlKnr9HC0kwyfLnJPiGVz9XrRz6ShGT5sj/KcNFn5V3cSwjUlCytohRjXsL5YkSyJ5zVvCtdfPIlqSM/Uaxo3MuUQbzUxIyTvEuL4fic2xOpF3a7Ho7+wuxh7IlrdER2SLq9+3Ey4dR4tpc/zFtMF+oqrbMLExKdc8Pv+z3/IZKJqRk4Qk3RFzutYVI/M3SJya9KLwmxgushLPieXDPYTz+5tFltz65OIuqWDNxYyXJ1cDwmOV+xJC4QyzREqkNTEkiei53YTr8K0iS0giNmikGPBVmEiXskXU4oHCo+N0cSrL2JAtfyaFCapYk2TrW3i8Febsk+J3xZw3zgHzXJoiIvIMY1F5jYakr3lTvNBppripE0JKiRRBY5qKSi2HiR8WrBErv+gsanWeJa7rlGu2UV9m9Vuhjhogm8uy9u19IuFyiPi0uaNo/fESsTY0VPz0Rn3h1v9L4b9ss9j84wBRr9lXIiJPMqpjxvkpN5+TVsRPMbU4z5q8UVinTJ0qGrKEuXMqU6SY2s0fW+KV+gqKEhdN8m37xXUyfWcJIXsmB0S2Qt3I0d0UK0YNF/6Xs4QUu1C8/EIHMeOq7skN9CWgmNsWZfNsXnHGWisMq2hq4Nu7FfU0AJK8Sbdhb9q4OdCw3zg+GTyY4X3cSbjzu/HnxApGXYqzziIRtexHInxH0Lu2LbY1XqRp3YI3rLRabIuUsWhtC55vNr/a5D42s6GhZvNeNHetjN97k5gwbjJL/Ydiv3MTR7LtaDF6PpO7JrFv+yUyNGkkP6iCzyvtcLdrQK+PxjNt/mReecHgY6oavvRuVS//7WjZvfSkhm9vWuVvHpqazenV3JXKfu8xacI4Ji/1Z6j9TjYd0cuOLW8zNtxVufVaeR4m2LUYzfzJXUnat51LGRrSktONP2OUOyfZM8jHpmJzBk8cz7ivl7P0Eyd2BB8m264Fo+dPpmvSPrZfykCTlky63pKpV+ZcjL6ULXFj2Qz2ur9DXxdbtPW60LFx/isVWUt0bhZgQ8Xmg5k4fhxfL1/KJ047CD540Tw+XZSM0gY7qWhGPkI2WrRFG0S5gg3SOPvRt617wVuvMuuTi7saBXGnON5BzsnVgEVnaajUF0p5pKFa0xLGkO4KgbPDqNerFU4aezyGjaNnbAAB+43fJFY+kwJk88hdvr4tOk0Di+bs36mumPNGM5PJJcPaYe0adURfv0N2lReoYQuaak3p3cYNh4b9GPfJYAYP74N7wh1+1ynXbMPezIzjWoU6aoBcLufdkLNva6ji3Zu29e1xaT+Y9159lQ9fa0amvR+jPnid10f0wzvxDtE6jVEdM0K2ruusiJ/iarE1eSO/Tr1cnXpMSXMn4KCZ3bzQEq/UV8hFk3z7EreQn2T63k+m7JkACnVDF/kL82/50t/TAY3LKFaeXM2HjQ0/wCkmporblxIgEwEAOaTcS1e0upYvzlhrhWEVyLfq2gAUZ9Iteno5W1uEubJX1qhLsdZZHXdvxSAZdl4sSvMzfV6hxhY7T0/q20jo0JN5Zw8BCyNw7tMXX6cCn5xNvt1WThIM5JtvKW4vDc2+ha3y/8vOE8/6Nki6YsYubCNnQlZarxXnYYI+8w57AhYS4dyHvoUTMKDYcyoOOxq418EWAfpM7uwJYGGEM336+uKEQGDJ1KuwN4XouHX9NjoDe/LjTVO0RBti1wD3OrYgpcvHp8UzKCL/eYZmZCU0BjGhsD4LcYfZeLkkKNQAyYq+zClhDEnxxCU+omj4OtStlU3GQ+Ov2Vk8E9k8SlOsb1JJzNmFafc45w1RyiXDp1i3Rr1eb+QANcr/crbYCj364mzhRc82N47HpcjHqQFyuay7pWzfLqxhgMbW4BGtBo14HO9ydayYul6S+Cn2XAwxzBv5dVpbp6zOHRO7uRzGfelMclf5nHOKORM5pNRkUu8lkZ8aWmrUd0I8MH5BpjSWtXZ3S2gQeoReb2R1zbm6ns1nlG26WTLG2kKUDKsy5Bd+ZZOu/K+oabCxkcjL05PxyIWWMkZdirXOamncpD5RGxdzKFGP/sFdYlLzN11T3hGHrFRSHoGUeJ3badnk5irPzwiRTXa+xpa823d40L4n7TUnWfDNAWoNepfm5TO4ny0QuVlk60wuegb22fT7ElBg2S1uL406EGRnP8pvk3ebOw/a07PVBYWx5Xe1COX1WmppTC4nF3zDgVqDeLd5eTLuZyNELlnZBuVA5pzkz8CwX4BHnL94n54Du6A5uYBvDtRi0LvNKZ9xn2whyM2KY4uZqdcgbpIO8LPs3jzuX4uXb2OS9wZxKEUP5JKXl0tuDth5tVawRBtO7zwX7/dkYA8/WeOztTspa0bWlMfRIYvU/A3i+u00sk03KNfKuDPBfLwutFWoAeVNQ9CA4s5QoYk89i3o0UFwdOcx8oePJ1HfnVe7lDcwZKeT1djCmcjmUZpifStPMYszRC7ni7ySxeSSQSxmNaKbwhqL0FKvoRt2D1JJeXx9kJ1eMSZug2eZGcdPNVCI08fI53Keu7eCfZuiGmaJwn22oq4rLdsUuXNxtCJvFNaZFbfFrE6ZUtLcKS6+zPvKN6IXNVE+50peCkZ0hbpRzqcNfvGrmPrzKVJz0zi3fBE7EvRlZ6C3AtuGFXRTN4RdJSb2FmcP7mH7xsVMm3GTTlOG0raFnE33RTRh35sZawulrjYV8XmpkYlh9WXK/7aRhQEhXLNvQdf2NYjdspCALdewb92T1we8gleKoUn3C1632UfggmAibfzo3DiTfasC2XG7Eu17dKF++n78l+wlx7MvY4a0Ic3IqDuCBoQVY53VUM23KRXC5vCPyYs58aAWlePPQI+x9POsgf7SXP49cydXpdpUTjhLrLYJXT4YTDsj0+8XjPCuVHSPKdI4viKA/XF5ZMWeY/dRiUFT/0Hb6hXIjVrFD3O3ce1+RbSJR4hIr0PdjMOs2xRBZr12dHzRhQraIvts4+ZOnF2ziC3X7Gnd6xUG9mlitpcO1zawMGAL1+xb07NzQ4hYQcD+OPKyYjm3+yjSoKn8o50rOtOx79fF7eFh1mw0txn36OSOU8G7cI5N2pbgPDrh/rihPo1LGxcSEHIN+xbdeL1+Mqt+mMu2a/epqE3kSMR9vHr0xKtq/htw+gwZO3BjF9kzaNPRA+3VUIIPXifmShi/uX3KN0M9qeCYS9SqH5i77Rr3K2pJPBLBfY+22G+aiL+hqbe9O+Lunvy48erLS/qtzDDaGy969PQif2oaqjRrRc3IhXz1bRCn7yYTe+s66Y4NeanrQPr6pphYon2oWu4hl0KDOXg9hithv+H26TcM9XwBbzPj8+vk7QuUNUobnoG8Gbkt1TR2VNNfYu6/Z7LzqkTtygmcjdXSpHVbat1cz6KYlnz+ZnP0pmcvF3cGL5KUxqvjI1MDPm7A7yFLWBQs3xd21WTP0NPpAsGLio8hfdolNi4MIOSaPS269ua1AS9yb9V/WXTyLndOXabC4KmMbeGEVhQZsrv1GUBvb9Mz8abS4znJ1qS+NGwms7axHiRss8Kc3d2P5NBA85yvct8gB7ryxsB+Zrk0wtsJHseiZ19GD29HsswaDbfU/oUHhC28RMPR/WmUeZWQJQsIjrTBr3NjMvetInDHbSq170H/V/rKrKkFToWd6ck4alq/+/ByV9M4HUGjog2kfG6UWS43eeOfvO912cy+7fJCMofWbuKc5EWnpnBszRKCL+jx6diE3EOrWLz5MtqW3fHN2c/SwjrmSZW4oj2Rq+s1ft/CEks1SKkWV3OwnDdveFNJZp0ebe3ZNNFf4XpSwtwZ+yLiiond3CB5ZPv6zIv4Lcb5VsNbru8WVKnaTMGI3om2VaLM1u/dbRTvtU5k07QJTJqzneT2nzOxbx3KG+RX6Qz0JcD0SyJ/O3TXxQ8dG+d/6bC06G6IHzs1Ep/sf4I+So1O3Pixk2j0yX7xLEZXeTrobvwoOjX6RJQkpJIWviIajtldqjgozXh/a/7wnM8QB//5qphwONP0ARVDSnEuT5I3ooxzpyz7+rOg8J2QvxM6JEmPUPho0Tok9Ho9xX5k/xSR9Hr0z2pwlaeD1WZkPQlHV7PuVBKpDxzo0KOV2Z9bW4XV46nk80fnfEW6fTMZ9/0rOf3Q9DGVIqw9lzLKG8o4d8qyrz8Jf/ObED0JZ8NIq9cMm8gwbj0yfdwacok5eYTUes2wuXiQqD/495RzY05yJLUezWwucvCPHlzl6VAiM7IgL+06u+d9xybXL5jzVvWSJ3WJxlN5Zjlf8SXGTupFzvnf8r8/omJCSc6lDPKGMs6dsuzrT4Rq0VVRUVFRUVF5JpTq5k9FRUVFRUVF5UnRlNggaGgUtdKCqGjMtWQnVaR0psqcmyc4frs0v4afQ+qdS5y7eJOUHNBnpJFujRGo1Ov7e/NnMy4/j/N7eGMPC2Zt4A8LPStrQakpRS6ZxtGzQdnSWrIzejIjakn2wnRej24cIWRPJAW/ZFB2lMqYnMmtg0uYvuyk2X4+V5Rqbc8fmbcOsmT6Mk4+xc3WlMwgaGoUtdLmKmvMNe2rBFhrqjTB3t0LETqN+aes/bRNT+KRHxnxxkf8tOsacdFn2fy/CQx95RNWx1rKyCdY39+aP6Fx+Unm9zTQx3NlVyAzA47wx4We5VpgaIouGaXJJZk4+gOxaMUu4Rk9qRHV6r0wm1cm+2dMIiStMk7KR1sqrDcmF6FPjSZyywJm77hpdZtnQWnW9tyhTyU6cgsLZu/g5lNchKZkBkETo6iVNld5Y65lO6kiVpkqZdBUpcNH/Yj57mv23zd90JzcCzMZNGQ3zb4PZPonb9Gv/yBGT/yOL19zJuu+pWr6BOv7W/PnMy6Xfn5PCU1tWvZpyR8aepZqgZEpuqSUJpfM4+gPwxordgnP6EmMqCXaC9N56e4gXl5AwLtupRxbGWuNyYZoqjWhZ6uyn0tZU5q1PXdoqtGkZyvcnvJm247q3XjqY2OrrhjDqqxRtHZ8oc3Vy+Y0K2bNYdWhO1TwbEE9zU22B/zMrocNeLHcZSNjrllfPV/H+dhCefNmFY2sJbV4U6UPrhWEvOFPWwv7U//mv9F9GNymajFBcp8tE95nae2vWDG2GUU/waKlpp8nNbVVqMY1M1NpvlhSZq/ctbLrMEJ/j1MrZjFn1SHuVPCkRT0NN7cH8POuhzRo3YByd0zWSDiLvwlk79nThB//lb1bt3I6z4cOjSsb90v+Xe35zctYGbKf83Fx/BZjR7X0nSxQMivK2F+NfpDqiW2pj5Gxmz4143JVsk3bGqtCFSycHlRNjmD1fH82x7jSyTuX8OX+zNt7H492npRPCGfDihPYtPTBWSNv9bVE2VidJRLDg1i5aT8nf4vidISW3mP74Z5lbtQ1m5Gs2TNXNgZyo48QHHqCiPAzxEk2ZGeCU8U0ThWanTGxI9cibtkIRs19bIpuSsUbISw/+oAK19ez9IITndySZecon0tZMqZT0wUBwjiOrD0XKSGckI072Hswkjw3X9wqydUgvbzJtno6R2cOM1iruRW7RGdkZkTtzdh+7ubnZ4RM7mK8F+YozEufQ2rkfs7btsDbWW4fTGtYAr8G/MDcdWHEV/GiWZ1y3Nnpz5yQZNzbeBb8GOBjTI3JcgZbw+fno7sYxE/XmjCs/kUWLtlNUq3mNKlRLv/XPM1sxLkkRGwyjrWm5a0aR24frTFg51O6tYGe1PObWbYyhP3n44j7LQaHJhW5uVah1irWApNejaziFWnesLqMDdzUPA3oLhL00zWaDKvPxYVL2J1Ui+ZN8tdrMRaspdDYKqUo2j3ljaKPTCyIQiRvHCLqtfyPOJ8nhBDJInj6LHEy09iYK9+Xsj1VyFpSrTBVJisb/pIXvyKq9F4g4ozFqcbkHBP/z8Ne+H4VIQx9nEXImEqjJcX1Ka3DjOSNYki9luI/+ZsokoOni1kns2TXeDJuo1i2OVkIIYmkbWOEV6MhYkOsTKdSggj9fJCYsDNO6HTxIniIm2hQnFlR1mJpbNUUT2xLFYp206djXJZra2hDFsVbOCVJ3JnTVdQduV3kL3eSeNFvogjPShTnlg8XHs7vi835Gk7rztmAsrE6SyJ5xzjR96PNIlaXJ24t7i+c3ceKA9nycWoyAxmzZ7x8DKTvFJ+0flesTpJE1skvhV+VtmLs8qMi8qxBLZCza6YvKzJFp1wSwR/7iQrNhonZc74WY6dvkZ2jUi7Jmk5NViSEMI4jK89Fd3OFGDXcX1zOkkTswpfFCx1miKsPzdveuadssjVaq5EVu4RnpGRENZ20EQq5a7gXZijNy8R0a/Uezhd9anUTP93OfzBl/f8TE3c8MH2aiTFZwWBr2kQIkbnyNeHUeowIWBMqNk3pIVy7/SRu6eRtxOGxprG208pxZPbRGgN2IaVZmyQSQj8XgybsFHE6nYgPHiLcGowVB7KVaq1SLTDtV8YqbtE8XUDmSvGaU2sxJmCNCN00RfRw7SZ+uqWzOhasQVNobNVUU7B75igYRc0tiNVf/ZT38oJYGpaNdHcbN13fpKWjsTFXvi8UzJuArCX18fNA0VSZq2z4q1DjBezv/MaNYj/nyncfKP/9soypND1PeX0W11FA9Vf59L08gpaGkS3dZdtNV95sWU52jbqKb/LB69WRotfyf58fp1eAP4Nk3nKVopbxY4QvI3rXxta2Bi82rVvwdqa8WVHeYinzzSTZMyuBLVXWbvqUjMuybU2MpsVaOEGrtS16pVBOm7+HGmf8+rbF3ep4NaWMrM4Pb7Bsxl7c3+mLi62Wel06kh96cnFqOiEN1UzNnr1TZWNAd+MYJ+7XwLWyBge/l/Arb4tbx3Y0bWZQCyzYNTXVfHilnTt2DXrx0fhpzJ/8qswclXNJ1nRqNIIMVp2Ljshf5nPLtz+eDhpcRq3k5OoPaVzevO2DKkomW+MejazYUsnOSFI0ohaDtblriOK8TGq8VXsItg1G8OWgeJYvPEWOPpYtp6vwRk8546cx1p+rDbZ1uzBs8Ku89m536sXdJjpH3ka86GxDk1h7xbpx5PbRGgO2AtaOuezHCHxH9Ka2rS01XmzK41JQolpgVNMAzK3iFs3TBtjY1qXLsMG8+tq7dK8Xx+1oyepYsAaNoe1Q3u6pbBQ1syDatWL0CBdCF24ibFsSjQfUzy/Uhcbc4vpSQNaSaoiCqbJ2MYY/W22+gbU47Hxo29KJmAsXiqRRhUhIkpyptJj1WVzHY+xoNXoELqEL2RS2jaTGA6hvq7DGSkDuVeaP/jfRQwL5b8+qpp0BoLt7ixjJ8GwtoGixtBYrbZeydtOnZFxWbGvytMcU9GfZwgkaw7yx+pwfU0ZW5/K3uH5bV7QPhaEnF6dGHRZgYvZUiAFt0wG8WSuCDXujiT8ZTmKrd+lf39a4Flhh17SxscHG5rHjU26Oyrkkazq1hFXnIpGanMq9pKT8L39qa1DfSfBAJ99W3mRrTmGN1ZXsjIqz1CqicG7FojgvjM/Vqj0EcKTTZ2OoHjSHDeHBXHV9k1Z2ps8xp1TnqrXFVq9D0inbiI1jzcpxlPZR9hpp1FIWq8bU3eVWjGRUy4pHoRaY1TRzq7hF87QsWmxt9egkJXt56dAY2w7lulE2ioKR2g+wxX3IaNocm8w36W14uXrRI/lPU+5LybyZK2tJzTa4KCiYKmOUDX956elkuTakvlZPysXDnI6T+755FV6b9CWtzs7m621xBt9If8S1bWs4ePO4jKk0D3dv+fVZXkcRtu5DGN3mGJO/SafNy9WV15iZycnvRzJb/JNl/25DBSmGc+fjTbtD27gJ9aM2svhQInr9A+7GpOYXSwWzInZeFqya+SidGQqRZIas3fQpGZfTs2is0NYMOQung4byjg5kpabwCInE67dJy841+zNBpXN+cOcY+04nyPxlQxlZnXO88G2czN6gQ/k3zbl55OXmklOMUdcMw1xWigGtM569X6dL+Stc0IxgfcineD9+ef64vZxdU8kUDQrWX6VcUjCdyi6oCKVzMW5VDp82fsSvmsrPp1LJTTvH8kU7iD6h0FY+6JTXqi3ZGekaKRhRecSdY/s4nWAeTYrnVhxK83r8eMG5WreH+dg2+oDPu0bw9UeX8BrkacUXSa0/V9nf1yzGuGx8jbNyHMV9lBnbIlaOqW1Mk/pRbFx8iES9ngd3Ywr/LLpEtcCspqWyzcQqbpUNnPyzl1txSWLBEpodYTdJv3SIQ7fiubozjOsZ1zi86zK/ndlFRPQ9Ig+cRDPcn586nGVc514M+3IlF3X2JITv5vSpHYTdTOfSoUOFP3muqfEaH7/9Et0HdMARQJ9K5I4wbqZf4tChu9QfLdfXXm6U68G7fa4yuXtfPlqZQFUXLTFHjhBTvys9bNYwcsAY5lzS4px8mPX7r3J5zwlup13i4L7fqD5oFoHDBMte96SO70gOew2gg30iod98xL/n/cLue0357OMeBUvWEXUtBt8+vXAhlpD/fMCk4JsGW1KEne/nbNz2T+yXvEefN0fy2RdT+HbGUq64vU6vRk3o2sOGNSMHMGbOJbTOyRxef4RyH8qv704dmXUcjDMdMh9NDV77+G1e6j6ADo75/yS3xuan/8OoWYm0aKflyNIA/Kd9wYLjppdFsG04hlnTPNj/fguav/kDF6hU8IVcJ3q824erk7vT96OVJFR1QRtzhCO3KzFoViDDxDJe96yD78jDeA3oZNotOMmf2YULOwm7nsG1w7u4/NsZdkVEcy/yAMejTeamqcng2Yt5J9ufPg3c6TUrh15veJJ2eQ8nbqdx6eA+fntgGD+3ZPfBL1ppPFuatffl/KwRzD3xQLZtpwrGU8oni/PBM5j7809M3+DIl3NHUk8DTj3epc/VyXTv+xErE6rioo3hyJHb+U0KXr5oPeTO+TZHvn+ftweOZ+0945HAloZjZjHNYz/vt2jOmz9cgEoFb38r7O+D12TWUbk+o/1/osPZcXTuNYwvV15EZ59A+EGtTJwexDjy9KRfDuXI9UdE7lrH6SQ9UF02BvSpJ9i0cDaTJ0zmPxPH8NbAD/jvnt9JjiyqBTceyORe+Wa09z3PrBFzORZzmdAj13kUuYt1p5PQaz1k5qiUSwfRtuuBzZqRDBgzh0taZ5IPr8c8lfRGcXTLRe5cTBtpqDl4Novfyca/TwPce80ip9cb+HrLtN32K7vCrpNx7TC7Lv/GmV0RRN+L5MDxaOO1RkdSWGPvOpfojBLrj8b/pw6cHdeZXsO+ZOVFHfYJ4ey9vJvv33+bgePXYhZOsufWwTinTH/z3VYhdvb+RqrBuUaXpIZRhX6fDqVxiz684Wr+ETGAPu0ye07cJu3SQfb9lo1HV8vnqr9/mdAjUTy6fpSdkdc4vTN/3w+eeMSbswN5+863DP18Gj98twPnr+cyuPxV41hDa9U48vvop3CNPI5paSvN2rBtyJhZ0/DY/z4tmr+JYSkoUS0wrWl6HYmh3/DRv+fxy+57NP3sY6g+iFmBwxDLXsezji8jD3sxwLSh/j6XQ48Q9eg6R3dGcu30zvz1HjxBfIOSxELx/P1+tl13ie/f/h9Nlizi9eryyfHXRuLGjK70jf6GyPndMf60XgXpJjO7vcztKZdY0MPK3bm3iL7tzvL55UX0UWySS8TsH4keOZk35T81y0e6wYyufYn+JpL53RU7e2boolYzK8yDwd0r8+D+QzJSbxC8OZ6P/zceD8svd1XKitwIZv8YzcjJb1JcOD1L0rdO4efKXzC5W8ErKZUSId2YQde+0XwTOZ/nsBSUGX+zq7COWyEh2I/9ntf+ljcg+egkCf2TaYP/wlhr4QR9wlFWrztFUuoDHDr0oJX53+kVIBEdtpEbrT5goMUrRllYnZ8WORzx/57N528Sr6+KS92aVMhKxbl9T+qrNyB/HFI0YRtv0OqDgc/hDYjErS0/MOWH75m8ryZvdlZvQEqNTkLSC9nvGf2V+FtdiXOjTxPtPY7xPWv8vRZugD7hLGFp9WhmE0lY6bTBf2FKYuEEkZfG9d3z+G6TK1/MeQvl+1pb6nUczHtdLP3YVFlYnZ8m9nSbtpLPahxl3hdjGTvRn0M2vflssC9WfO9QpaywrUfHwe/RxdpfOvuDEdkp3L6j5bVJH9Hk+Zzi848+gbNhadRrZkNk2C3TR/9S/P0+jlFRUVFRUVF5LlB87aaioqKioqKi8jQp05sQU/ui9ZSVaRIopWG3ZCjP1zKPiLlwjLCwMMKOHeP4yfP8llQqoYYFlOdY8j2VR84eq0+7wNaF3/LlpLls2vA/2fGfOk/ZYGlsJFXe5z8FpbDTWsJSfEmpl9j6vx/ZECXzJ6YqT8TT29sns/g+VZ7E4KxP4vzOEI7eslyD5erdH4GlfCoZEjHhW9gWURoRYlnPJZ+yuwkxsy+WjLIwTQKlNuyWFNn5WoUDNes5sO//9eTdmUeJvvUrc9/wo9VHQdy2do1WIjvH0uypIYZWWlN7rPQbC/9vEbnv/oO3qu1jdujv5uP/ATxdg6W5kVR2n62lzC2/etJS0qz8Mltp7LQWsBhfEveiTxDsH0hYfBmfTpnv5Z+Np7e3T2bxfdpYNjgrId1dw+T/noFqRXYwRUzr3R+BxXwqIbkRLPgykDvlq1n4fpoMZT2XAspuO03tiyWibEyTQOkNuyVCYb5WocGuahOa1CtPlSbdeeO9z/APeB9WjOe73Zbvxq1HYY6l2dNCjK20pvZYfexONl10oLZjRVr9awfHV880H/8P4OkaLE2NpAr7bBVlb/nVJ4YydeZBrOuxNHZaC1iML1tq+XbCu6bVPwtpJWW/l38+ntbePqnF9yljyeBcDA9jXBiz+hs6VTF9xBzTeveHYDGfSoY+MY3mU5fzf01L8Te/ZTyXx9j2buwy1dQYWr2cnHmwmoyhEJCzL37cguT1ytY/c0tlLjHHgyybJrVylkTTJWFi2LVsL8yOOU5Q0Dk0FW6wdt5aTj1ywbdRLueVLLFV8ogL38CKEza09HFGk6FgwFQkj8sb5/BrtaF81NOVcjbX2DR3Fzb9xjPI7YZZX/qECDYtP8qDCtdZv/QCTq3dSN5Z/Jog28o9Lb2V1tv+KsEFdtvq8YdYOn8VoSdj0fMIapvbQ81suRqZs9HL2VyNF2fZ3mhqsFSIG30KZ7ZuZH/4aU6fS6Gib0Pzv3CREggP2ciOvQeJzHPD160SGiM7q85kn601b1Yn/aip5deeO6b2U2HFHAvQ3zvKzGGjmBspYa93wLVFIyolniBozWb2HDhDcrUmeBYkjLydVosuXu75enkjtRFK8WW+HxVIJmzFejLadSV7awDBFyTq+TXIj2Ezs2c5EuVstUZKZj33rNnLvASZuC6wO8uOa1oDnQvHi49YzXxZA7UjSRbnS761WGkusvGaS+KZEJYdeYS7FMaCgBCuO/rQVHuBNQsC2XG3Kn6+tXAQCnsrl1cVoy1bVBUtvjLnatBYH69sna6cZmh0daRW6i6FvawiW1vN6qGvEzc2PTY4axT2z3BRRed3r/3HvO54qmhM92zOKJyLqc3b/DqmAV08J4LWsHnPAc4kV6OJZw2Lv8UkX89KkE95iZwJWcaRR+5IYQsICLmOo09TtBfWsCBwB3er+uFbywEyrrAt5DQxtyI4//g6ZU0NLMlczALICuSMoQn3TM2D24WcofBUlpJ9sTjrn7ml8nK8NaZJeUviKRkppKFh16K9UEoQEQHviQbOHcTIKTOF//TBoqlTHTEkOEnkKaxBSjwnlg/3EM7vbxZZCjbd4skU6wdVER7j9onk1BsidHwr4ez7D7E3VaavO/fEpeCPhV+FZmLY7Dni67HTxZa1I4tfk7DW3ilnlrXSSmtitxVCiLwLU0SrphPEsRzT8eVtueZnc0fcM7O5JhkvzCp7o6HBUjlu0oNHivcXJghJShRbJ38nDETL+ehuihWjhgv/y1lCil0oXn6hg5hxVWdkJDVbZ4nMm4aWX5m2UyIsz9GE9GX9RY23g0SmEEKKDRIjB3wlwtIlkR21WAz06Cimn8pStNMqPV/WimuEUnzJr0nororv27mIjqOniTn+08Rgv6rCbdhGkZRrbvb8z/5zyrZaIyzt5Ullu7OMUfQ/+8+b2VeNUDBQZ6UUY9ctaqw8F4V4DY+/LEI+bS4cW38slqwNFaE/vSHqu/UXX/ovE5s3/ygG1GsmvorIU9jbDSLqoklebTtltmYzi6qixVduf00t2wrW6RwZo6vCXubI1VazeviNWHdwqYHNXX7/zK4TsmMeF/FK52Jm8za/jl3NjRVBIweIr8LShZQdJRYP9BAdp58SpkMbIVvPSpJPJ0Xa5RDxaXNH0frjJWJtaKj46Y36wq3/l8J/2Wax+ccBol6zr0REnsxeRktW1JeSzMU0BqxDI2cMPepoYrn80k3WUBiw57KCfVHJ+idvqfSsZYVpUidvSQzYX/zbrxbthZqaNO/VHNfKfrw3aQLjJi/Ff6g9OzcdIVt2DaBx9qNvW/eCtyblDZjWoLt3gZ0hB0lpN5vjx3+iV1WZvh5UweeVdrjbNaDXR+OZNn8yr3YbU/yasNbeKWdhtNJKa2S3NcdofAVbrvnZPKCKqc31lRrGHZfU3lhM3Ng62HBixhAmBEbRfPw4TGSv6CJ/Yf4tX/p7OqBxGcXKk6v5sLHxe5HG+/wE5k25trVzLc5RGR1XAmcTVq8XrZw02HsMY1zPWAIC9nBZ1k6r9Pz9ZFuw4irGl8KaALCpSPPBExk/7muWL/0Epx3BHLxobvZ0Kd/QKlutEbLj6hTtzjkyRlGX8g3M7KvGyBuoNdWssesWY5pWiNdFpxvQu2197F3aM/i9V3n1w9dolmmP36gPeP31Ef+/vXMPjOna/vg3k1TEM+IdhCAPIQkSGhGPVNBSpVW3pSj1q169bbm/q15VcqtFuVU3bUUk1UdKS4Q0nhXVKm0Rv4SIokgkmkjIyyPyPLN+fyRk5py9ZyYeHWp9/kLmnLPX2mvt2THnzAfDvXJxPrP6IprcxuJYJ+O+mttxtyZmtUVVavEV5ld7t6bQOi0wuspyKVxbNevhAjw/4PEa068kf9r3CdE1TcyL0Xonfh9zPR2FDw64YLB/Y+js3THx9RBkhYdDc2lDROtZRW36qRKOXkMQ0MEezoHjMHbECPzPSF8U2/tgyuSn8fSk4fDKPY/MSkEui/Tm15fb6e1aUjVz1XNhaAw1Mg8qEkPh1XMm7IsiJJZKvQWmSdkYrpu+Q8Yie2E1VZesAw+PDrAx+ZWZOgODptiAaQkOHfrhuZdexqQx/dGpAeTnsqkyWd4UnFoak9mcSi2Mllhpb45L/Y813Lq+xJYrjkNlc1VTW3ujibpp8GQYvlvZH9nhz8D3sXn4Idc4RqUgDwWXL6Fq2HZo3qEx6Ko2DzVx3oF5U3KsuTHKUXAxOxc3agJH23atUHrtKs4J7bSy11+HYs6KK6svSUxq6nR0RVtbQCkSmz0ttdXeQnpdcV3LjKJq+6qlWDZe8VhM1atRv+lsb60HgB10OhL26M3ckqqvZDEbIrX4SvNrCVqjqxzL1kMj06+p/FmEZF5guN6J38cKs7KRe6MENZduh1al12Dy0qL17Db66dYaBEBna1CzdjroiKDXi3Npdn25jbHUFp3YGApj86DMUBjsI7Uviq1/Yktljt7gejKjo2wMAxxujlKAhfZCAFRaiqo0VCD9/FUEhgSinjAG1YESA2ZpeT5SfjwCoaAXgF4PkF719ik7V6XhPsPymMzm9I6stFegGIhTgWrjol5vZGUmyGy5mfI4JJsq3I690UTdFGzdgpNBb+ObxIMIbRGPbw4YT+4jXR+Fz8VohH58GAXlhUj+LALbq4pVRXWctTZvGuTzhjP8BMeKxnhDauQFdDY2UCoqoL9Wgs7BfUH7d+DnqsBxMVePx0YEw0dosrZHz0Gi1w+Ag8iKa4isvqT5MObG0RRcCRmFQT4Ss6csfUaYzyUkMyE3iprY4MoM1JBcRIDwZSbqFep+s4CbuR1Q1/hgecw12HlKLL4WzavMOq01ukpzadF6WM3NfzCTv1vIrimbl2qqLiN+HyvsPgh9aT92VDUQKi/mQv/YCAxwkFuPhetZhSu8at1PJmoV8veW7Djt+mLEHfa2JdgOdnkkdE92BUqykrFrv4IxoTPQW3cSmyMjEJNYDJc+Qeju3Bxefb1wOXoJIg5l4PzhE6g/LhSv+rdHd/+WOL56Ht7dcAQZeVlIO1OEep16I9i7M/SpK/HW8h04qbRGo5wkZNl5IXjKWPTKjcU7M+dixbY8BE6fhcfrncLG1eGIO2WPXkOewujBbQXnHIBpk4O0Y+jZ2Pg3FX0hUjetRviWU7DvGYynO+QheulKbD11BQ3scrEv8Qo8B4XAs0nN5whU+As+D9+D7IoSZCXvwn5lDEJnBMCprpMghi7oFdAJdY6uQ8QFP0wf3QP609FYunIrTl1pALvcfUi84olgz//D3Gf+ixvDX0CA0Z0+xUjbF401UfE4UtAY7r7d0MW5YVUMNg4oV5+rqC3aXfsRX8cmotilD4K6t0GzitNmY9IXpFiQ094YNmoYPPPj8f6sOXjviyQ0mzAbT9skIGpVDI7b+KC/WzESoqOwPb0hAgcNQIeiPQiL3I0ytx5onLQOEXGnYN8rBI+3uIRdn67C2t3pqOvuDbcmBfguqvr6g5/AqKFdkB37DmbOXYFteYGYPms4OkIdRxHatruGH7+ORWKxC/oEdYez6k4nG4dynI5eipVbT+FKAzvk7kvEFc9BCPFscutpGH1hKjatDseWU/boOXAIRj7VXVA3DXF9/2JMXXkUZcW5uGzjh+cm90d7gyf1bBp0Re/O2Yh9ZybmrtiGvMDpmDXMGcWpm7A6fAtO2fdEf68yfL+2Os6QoXjqCW/kx7+PWXPewxdJzTBh9tOoSIjCqpjjsPHpD7fiBERHbUd6w0AM6tcJjf74riqfHsMwdfyjKDQ6diJaJi9RjfFR/L4gGGMXnUDbCc/CVyW+tKUMfBcWid1lHhj28ovokxeNJRGHkHH+ME7UH4fQV/3Rvrs/Wh5fjXnvbsCRjDxkpZ1BUb1OGPDiZAQVqV/fEw2v78fiqStxtKwYuZdt4PfcZAQaJkrnCF/hOjAAr04MVOVjEjo3egR211MRH7MXZy78hgO/t8dr/54Aj2ZeCPDMR/z7szDnvS+Q1GwCZj9tg4SoVYg5bgOf/m4oTohG1PZ0NAwchEGujQ0jB2WYyuUkNP8jDpGiuh4xFc8/WmR03TdHERKiDNdA9U2bdeCkT8XKt5Zjx0kFrRvlICnLDl08GuNYTITZ8V45uUU8lkFD8MQwb229uudg65pV2JiswLNfN+DndYiMOQZ91yB0Kf8B0Ws244SdH0IGdkWLMnVuX0DL9C2IjIip6avmglxP8kJDgyB1jr7wb3kcq+e9iw1HMpCXlYYzRfXQqfdAjBqmrvNJ6Gx4MIA6TnqkrnwLy3echNK6EXKSsmDn4QWbb97EyqNlKM69DBu/5zA00E2cy97BaHtpvZn1sBXKjm/E6vA4nLLvhZD+PggcKHivUr9PSObPpUkuEr6K1c5LcFdc+y4S4XGnYN9rMEaPGorO2cbvY8PcfNHX6zKil0TgUMZ5HD5RH+NCX0XPunswK3gsFp1oiwnP+sKwZYXrWZdn8L8veOKEhf3UKnsr1qzaiGTFE1WlEYmYY3p0DeqC8h+isWbzCdj5P4W+2Ib/GL1PuSPAPhazwuRrYK17W1UDlmCzrF9nqpUx9C+Icm45gh9Px8LUVbA0DZcjhqFP0nSciBhq9u5nhrm7WGjkZRjm/uABsB5bC52lxtC/NIoeen3VvTCm0SNn/1f4+vAlFFyti76D/CEVpzLMPaE2Rl6GYazOfW09tj62PYMGhpbpnODm44ZmD+Ov9OUXcPDbfTh9rQw6Jzf4uDUz8T8behQe24I1nyXgUs9peOtvbrf3XDTD3DY6NHbxhneHRvfoy9gYhrmr6BrDxdsbHRpxx4pgiy7DMAzDMFaBt2YMwzAMw1iFh3sTUnYd16ufSCrXPHv7YHLvLJpWxtD2eifWTAsQ2jJvnMW+zbuQki96RNdC7oGx1rrca2P1DZzdtxm7UqoeETWFcM7uJmUFOJ+ajJRz+SiDHtcKi4SPSAMKClK/xX+XbcSdt+B9bK59AHlg7deWrBvKBRyM24pEkVmuOA17Ixdh7aH7M9L7exNyL62YV37E+y8+ju4effHy8nCEfZN0/xejWe6dRdO6qG2vt2/NtAiBLfN6wlLM3lyARo63e011DH8B7tBYrS/Mh8n2vp6ApbM3o6CRo/mFSjBndwV9LvYtm4RnXvkQO09lIzNpM/47cwKemPYVskRjVy4j89cYhEUdwJ224O2ba2tjUn5YuLv2a7O1e9ewbN0oT1yFOVHn4eCktsvpUZB5HHGrPsD2c3dYkPeI28n/n8S9tWLqKzth/NqfkLxzLnraOSBwSG/UUb/ogePeWTSti8r2egfWTEvQ2jIrka4fgk8ixqGDusct5h4Ya63NnRir9bmID10OU+1dma7HkE8iMM6CpGvn7G5QjmPLx2D8Ll8sjlqEac8Ox5NjXsas9+ZgZIsSXBG9Cdm2gnc/L9yNFrxdc23tTMoPC3fRfm1B7d49LFk39Mgt7IHQz/4BrRxXB6cuIfBvb+p462Jbt4RCtfZCEyZIgdVQNIkWGwaFNkm1sbU5nAv34gsjo6WD1sBqJ7Z9aiyx9SuQeyIBmw8r6OyQgV9TcmDfya9W8d1En29ohGwA33ppUnuk0S/RwrjvL4umPucnhC9dia8PXISjpy/aPnIeO8JWYEueK/p63HzY7DaNohbmWWh7bX0Rv2yotmY6XtLG1aJcaHcU1qTAkluusmVWXjyEH//vNFL215hly3NEZtzmwke2hTFU6YtN5r/qYO34dML6AMpVdtF67UqwP9rQvtwNDTLVvWAj7kv1OCAyzdYHjIzVAiNzfRtAbVDuWg9HP5iIKSuPQ7HXo25zZxTu/cJ4Dp0u49CP/4fTKfsNxlSOHEk93RPD6ZU4zHzhU7Se9zle9TX4Bie7lvDxaAk7Ryc0LNbWsW3eAXz+zTX0GViKb8NjcExxgU/HqvoW50eFzFwryL+NyoJar1U21k4yNCm3xMVt6nVSUleiniwXrBsqq7W+4Cg2r/0SW/YcRXb277hQxwlFO1ZJDOQ6YR3VZOE21xM1ovjuhv3aEzi43KB22/RE5yalmmONp7XKaL4hWYf6Z9fjo/WHccPZG+5NH5Gs9dUhCNaNwQ7JKqN6Nzj8vhVbjlxAWuJRiVW8EikbPsSpLhPRIWU1InddQqseXVC1DIsNvlrjuaj/TZmma4HWJGjKBCk28amx3DB4kLJk1kIDK6aSr7b67hAYWDNJEdg+tZbYhXQo987iq0FghJTaIw2Pe0AsmlRJ5z4ZSq2CP6R0hYgon7751yzaflX1MqGR8s7rSGx7vUGXjn5Wbc0spnyNdfei0O4orMkygSX3xEUjW6bQLHswy4QZ15IYSokE5lZN/oUW33JhfRwuzje2i06bS+FRrxjZl7ce/lTTC4llor4UmD8l4zU0Vot6LbFCbFCmorX0ZPO/0YZiRTuH21KEYyqW1VP5vTGclv38L3K3967qKyHiOq48uZj6OAfRy++soLB3xpFPk/Y0cdMlKhfmR3VKmblWkn+RBdXQpCxcJ4V1dV0QS4V2blRWayUnnqaPmUk7siup8mIMjW/fscrILDGQy+rI+KS1XU+MDxf3zV20X9+qXZIYm41tskpOIoWP7Ugt+r5EC5eH0aJx3ahx2/EUc6lC3MslknUjIVtjVN+RuVVg4TW6PBEV05cjG1OvqeG0Lj6WFg5qQ8EfplGl0OAr6VfBvJk1TVuITmsSNGWCFJv4jKmNYTACSZ0l1kKDM+qcVFbf+U8IDKxF0Gtsn3YCS2xrVDrcSXyGiIyQMnukISZsjRILpDUsmoAtOk6agzEXP8Pqw2XQZ8XhiOMzCDH2XEFspLzTOlJwVmh71aG595Bqa6YOTmrr7pACgd3xhrgmfxNYcj1aGdkyhWbZiCR0tsSMK40BUATmVnX+hRZf19PC+gjfW8/YLrpqMf7+fKCBbXQuOu7+XNMLN5JFfak1f5ofr8jI3Brl18QG5Rq0czin/RbhmPbWk9ST/h4ZTonMmETkdWzToAfGzfonXn/7M3w6rTG2x+xFiig/qpaTmWtl+TdnQRWtk+WiunJzEMQCzdwYW60VnF67DInekzCktS1sm3dHt3bVq53EQC6Lw5jaricGh8r65k+2Xxuia9kDg3u0QSOfsZg783XM/zQME+x3IHZvsriX9xSL1w2dk8ao/kQbf62FV72UAoCNLdoNmIhxI0bi+cdckJ2eCUVk8C0X96to3sybpi1D+mmu2AQpNvEZU1vDoAlroQFqo6XQwKqxfWZLLLF3Ep8htTFCqpHEbcoC+SdbNAEA9frhjalNsWHFRhyMOYk2o/1rde/M7ee5EmlC2yuqc3fzLyrrrtDu6C+uyTyJJdfAlik1y1pixjURgyX5F1p8C7PM1IeBXdTo72Jjsv9VWV9W/0M15scrPv+j9cQGZWNUtXlRPiZxPd2MFbex/tScTk2drgHwa3wBx44Jns5RFCgW1XEddHRtC1soKBLlR9VyMnOtLP/mLKiidVJYV1crJbGo+suISmSkXYBiOCdmkMVhKdL5N0Acn/pVBuZZ4ZpxZ/ZrMdVnq+MBjw42UMpzJL1cJl03ND0usvBW/0iGna0t9JUKSHSsxHgumzf1+/LtoJOZBIWRSEx8xgLX2hoGxZeCxthqmFyJSTY7TmX7PCy1xAovKovv6nn8nHAEWgmiwAgptUdqEQ3BnAVSu8iZ5k4smlXYovPk6RiY+DZeSfXEGA/t/+uYMlIKg5Tl2aiO7OAptL1W/9gwEYZ/FtodDwlrMr+L3JJbdUoTZllhYGrkMViSf6HFt7B7reqj5u9iY3Kih7wvDTE/XvH5D5SLDMo5gM4GNkoFKvTXUHRFMRq4fU8TYzKR9qpT1H790een4Mcj2erTAY4jMXeOP5I+eBtbDXXYN05h67q9uFBiSR3fwNGUKwgZNQg+ovyoWk5mrpXlX2RZrjEpX8L3H2vXycpO/tq6yvxVHou6qG5hB7cuHXB60xr8kKuH/moGLhRU9Y/Yom5JHd3GeqJC2Dd3035tWLslbpJj1RBKS29UnbEiHeevBiJkQICklxtK1w2opkNo4dVYxUk4hcJjKzvBX9Cv8nkzv+kxS3r0ePJo50tPTFlMYa8HkdfoRbT76FFaP9mD6vpMo02pp+lQ2GhycexH8/YkUfxrvtTWayi9vGAZTQtsT/3/FUfn1J9rVqRR7IyB1N6xMTn7jaNPjlwjIoUu7pxPTwaPojf+vYTefnMxbftDoaLf1tNkj7rkM20TpZ4+RGGjXcix3zzam1FMSUsGkGv30RS6MYHWTfEie7fxFJWYSwopdCn+NfJt60VDX15Ay6YFUvv+/6LNh1bT3/yepXlhUfTx/H/Sf34qJKrMpK1zhpC7UyNq5j6U3tqZTUrRb7WK77f4l6m9Yxt6/kvjz0NJyaXIv/nRs/PCKOrj+fTP//xERESV6dE03qMd+T4xhRaHvU5BXqNp0e40o0PlcZeRcnEnzX8ymEa98W9a8vabtHjbH6RcO0Wbpnalul2m0Ppj5yjlm5epm4M3vbIxhc4mfUYT3R2o+2vxdOZ6If2yciINf2YahS5fRgsWrKGD+RVUmPo1TfGyJ7fxUZSYqxBRJWVunUND3J2oUTN3GvrWTsrWfJZ4kwo68nYITdxYoP5BNZV0T+qoJJXWTu5Nnb0eowkzZ9MYP3d6ckEcJf4aSc+71ie/GdsoOVEdF1Fl5laaM8SdnBo1I/ehb9HObEVSkxWUFjuDBrZ3pMbOfjTukyN0Tcmno5HPk2t9P5qx4xyRcpF2zn+Sgke9Qf9e8ja9uXgb/aEU0W/rJ5NHXR+atimVTh8Ko9EujtRv3l7KMLr3RxZDPJ0ptiT/gvERietDKaTUr6eQl70bjY9KpNwK1d8VEveCpC+1CMZbUUApkc9Rh3p+ND3+tOT8RBVpsTRjYHtybOxMfuM+oarUJ9GSAa7UfXQobUxYp5pDyZikfXvMeM6Ecy05JymUGTmSOoSsVAdchVJIRyJfo+H9B9Ezk1+nWQsW0dKwWDp2lYiUS+I6vvwLrZw4nJ6ZFkrLly2gBWsOUr40/2pKKHXtZOrd2YsemzCTZo/xI/cnF1D8mava/CsK5Ub+jfyenUdhUR/T/H/+h34qJKpIWkIDXLvT6He2UfIW7ToZd65EW1fCWDZT8lFtfxlxLZHCxnSlFs4+NGrWB/SPR92q73lKp+jxHtTO9wmasjiMXg/yotGLdlNamaCONKet5XqyN0N1vKhvFCpIiaTnOtQjv+nxdDLjKEU+70r1/WbQjnPFgjWjQN7jxTdr9x3akVkpOFYdUCWdXRZETXtMoNAPP6IVb71Bb8eeowpZL5Nk3Xh7Pe343LinlUvx9JpvW/Ia+jItWDaNAtv3p3/FVZ27CoWKUtfTS551yfvvMZRy8iD9d7QLOfZ7i75P3iI8tkTUr4L+/yM/lb42el++Pfhr2y2kPPEDLMt8CfMfSm1pEb5d+DEazZ6P4HrqnzEMwwBQzuL9gcOQ+e/j+OQxk88dPWQoOLc8GI+nL0TqqkGmn8h6CJHeE8LUoGQewKaz/pj8sGlLlTTELV2IpYvnI6HlaPTnDQjDMFIqoSh6kOiTj4ccRa+H/qHX1YvhTYgF2LoEYdzYATD5fTF/SQil+ek4bzcSc1/pInjKh2EYBgD0yEk6gEIXX9gcP4C0G+qfP7yUXziEfQUu8LVJwd7T19Q/fujhj2MYhmEYhrEK/D8hDMMwDMNYhXuwCSlG2t5ILFp7SPhY6j3nLhtWr5/9Dqv+sxGmBIY3MbY0Whn9FZza+QkWRx+7IwPnfRWTFAtso6Ysk/cVtbR7WmLYfOD5c9aU+9ayas4grS/EsW9X4905cxGWkGF4JMPc99z1TYi+IBPH41bhg+3n5G8I95S7aFjVX8RvO6OwPHwfzL93aS2Ncu695VKfl4nETR/h4+8z7mAeahHTvTQem8ES26jcMnn/Ybnd0zLD5oPOn7OmaGvd8nkQcNf6QT3H6vVNwe+r/4GI8ucx41kn7H43XHX83eDer1fMw8tt9ZcpdE5dEOLf3no3Md5Nw6quNfyG+ll4Q6ra0ijnz7Bc6lp0xQAf5zucYEtjurfGY3OYt42askzeb9TG7mmJYfPB589ZU9S1Xpt5UHM3+8GMQVqfhR2xKajbuh4a+L+JbfuWGh19N/gz1ivm4cV2RDen0H03XKEcWIXwLWdQr2s32B1bh1VR25HRxAfeLQqR+NUnUiOiyFZZmbIBH57qgokdUrA6chcuteqBLjJzqsoC2cC7E5rees+T2Aeb5MnH5JCDgxs/x682fujaQie0BKrNtz06NTXOChTkHtyAL2P34NDvp3Ek0Q5DXh0OVzutadHIlmhkabSr+oZNlSGx6dX9WD7R0HLZGfbn1WZNEtqAq9Aj56dwLF35NQ5cdISnb1s8cn4HwlZsQZ7ro/BocvN1hKuHvsSnOQF4Y5QH7ABUXvwVG9Ztxnff19hgYTL/gpg0JtKmuLrf0HjcBj072+O8Jk9iw/FNSi/8gg0bkqGrfxbrP1qPwzec4e3eFI/Ixg2IbaODHZCssn62z9upskzqpTZWI4S50dbAI7nG9trGvbrhpmhUHFcT5ElNoQ7IObgRn/9qA7+uLcRmU4gNm8NdRfPTHPYwnXuUXsAvGzYgWVcfZ9d/hPWHb8DZ2x1Vkk/B+UyaVS2wPXclHJf1r6PYbKyXrSmCHqsqa/M9rjGF2tTOslq/QmTCVhvAJf1AotpSjVA0x4YG6aYX8cOnnyA6/hCy9MANtBZeS1SfGpvyI7mCWLzQtEi7XjUpVdtU64PM5pthJLzWox71+nskrY+Ppw+f6UDtn5xDYWs30+ZlT5GL7zxKrCCpEVFoq6wkKv5yJDXuNZXC18VT7MJB1Cb4Q0qTmFNFFsibyO2DimRMJZSb/Bm96N6CXthcQiS0BIrMt4YolLf9dRr2ymbKqqygtDVPUgvXV+n7UvO2RENLI0lsuIdLjC2XQvNontYGbETlOfpkaCsK/jC96lvq8r+hf83aTsZyW4UyVwZTmxe/pRKS2GAPl5jMf9VpDGJSZCbSGuOx1CopMBzXXCOHEsPHUscWfemlhcspbNE46ta4LY2PuUQVknGLbaMJlK22fsat19TA+cuW2Ti1uRHEtmCP1mx5qfq7A03EpchMobnJ9NmL7tTihc1UIrG0Cg2b35fK58dU7kmhnMRwGtuxBfV9aSEtD1tE47o1prbjY+hSheh8BylLnWMDs6pSaJntWdy/VZZVkQFVvKbIesxcj0tMobWxrC48ZMKEbb4ftLVlPELxHBsapKv9vxXHaKF/N5r5c5n4WoL61NqUF9CeZFksxuuVyKa6MDHPTL4ZRo4uoIM9nAPHYeyIEfifkb4otvfBlMlP4+lJw+GVex6ZlZAYEcW2yipZoQ1s2w3AxHEjMPL5x+CSnY5MRWycNGWBlNoH95VKxqRDC59hCHCt/q9LkSVQLzbf3kI5i7Xv74brc8PgbGsHlwFBcKvSWJq1JRohseGGG2k7JebRcrUNWPUZgm1HTJozBhc/W43DZXpkxR2B4zMhkGugJDbY8D2oMJF/NZW/WWAileVJYzg2mmj0GNwDbRr5YOzcmXh9/qcIm2CPHbF7kSwZd7HQNqo1ss4fEaypgauOltk4NbVpJ4jN2UFrtmxe/SutNK59KJWZQlv4YFiAa/VHD6KeqRAbNk3NT4WJ3EOHlj0Go0ebRvAZOxczX5+PT8MmwH5HLPYKDbsRSFIZmQ3NqjpHL8tsz8L+NWVAFawpZbIeqzDd45ViU6ghZi2rrSvlJmzDEwmPLdfWllHfyezLhgZpAaJraepTZFN2hkMnC2KBzIJbbjrfDGMC3S2TIACdrYENz04HHQmsgbcQ2yo1skI7W9jqK6GQ2DhpzgJZhco+qO4MQ3QGplmRJdCc+bYyDWfSKw1stdVXr5UtEaZtuDUvEptHW6ttwLkGx1RRr98bmNp0A1ZsPIiYk20w2t+U21Zug3WwKP9VmLKb1rxIkieN4VgbE27NdB14eHSAjVKOHMm4yyS2UY31U1gDltk4NbWZnS+OTW22FGAcl8kCNhibqGdMmHll8+NgWe5r2swDHWwUlOdIzqeYMqsaGm1hse35JhYZUG+uKZWyHnMw3eMSU6gas5ZVmQnbEMmxmtoy6jv5HN+sbyGSa1liU360oQWxQGbBbW063wxjAp0lFjyxEVFsq8zRA8LvP5OYU7PjtBZIYwT2wcC6kjEZHym0BJZkI05jvjXAzhPebnnYveEHVAkMK1BRXo4yqWlRggkbbo3l8gac/QRmzQtbVTZgwXVsO2Py9IFIfPsVpHqOgUhuW4PcBlsisHDKkNtNDYzHN5zhJ8pTgfmYqLQUN6omGunnryIwZAACJONuKLGNVp2opv7ENVCKSkGJqtEYSg93lNaAqORvoo0rEHVNmUJvIuyZCrh6iQ2b0vkpMZ97UClKqwaJivTzuBoYggEBkvM5mAnY/I+l/SszoArXFGmPlQjs1gY8IjH7ajBnWZV5Vs33g6a2jPpObl8G1MklEOmhJzPjvHWIxHZcLIsFButVEUrcRDbVC4J865Gf8iOOGNqHGUaAbTMdQpMVT/TrBvy8LhIxx/ToGtQF5T9EY83mE7DzC8EA786wS12Jt5bvwEmlNRrlJCHLzgvBU8aiV24s3pk5Fyu25SFw+iw83vAMNq8Jx6bjOngHdUZxwleI2p6ORkEjEVT2LZau3IpTVxrALncfEq+4I8A+FrPCjqKsOBeXbfzw3OT+aF/35vAIhb98jvA92agoyULyrv1QxoRiRoATdHWcoNeMqQt6BbTCuW8icMFvOkb30ON09FKs3HoKVxrYIXdfIq64B8A+dhbCjpahOPcybPyew9DA9jUZ0TnC178ljq+eh3c3HEFGXhbSzhShXqcBeHViIPLj38esOe/hi6RmmDB7Ejo3rPmttTB1E1aHb8Ep+54YGNQdQcFeuBy9BBGHMnD+8AnUHxeKV3s2hh1l4LuwSOwu88CwqePxaGE83p81B+99kYRmE2ZjYrtkLJm6EkfLipF72QZ+z01GYE1SblG3czsU7MxE4IKJ6KZSr+sLU7FpdTi2nLJHz4FB6B4UDK/L0VgScQgZ5w/jRP1xCH21O3QHFmPqSln+VTENGYmnul9G9JIIHMo4j8Mn6mNc6Kvo2dgOlPEdwiJ3o8xjGKaOfxSFqjx1xAEsNhETFf6Cz8P3ILuiBFnJu7BfGYPQGQFo27WvYNw94djEF/4tj2P1vHex4UgG8rLScKbIAS2bXMQP32xBYrEL+gR1R5tmFdoaaNce139ch03HbeDT3w3FCdGI2p6OhoGDMMi18a3Yr+1X52YoHh/oaVwDb45CWUIUImISUezSB0HdnY1uVpbF5aSrAyd9Kla+tRw7Tipo3SgHSVl26NIrAK3OfYOIC36YProH9KejVT3TBc/87wvwPLEa897dgCMZechKO4Oiep3Qe+BIjPDVzk93nencgwrxy+fh2JNdgZKsZOzar2BM6AwEtO2Kvl7q8/0dHf/YgsiImFs5djYM+PppxK9ZhY3JCjyrFhVExhyDvmsQupT/gOg1m3HCzg8hgwPgeFrbv71DnsJQj2zEvjMTc1dsQ17gdMzsewXbRGtK36fwjxf6aHusuw4HFk/FSlmP2zRA196dkR37DmbOXYFteYGYPutxOPxeU+v9vcrw/dpwxJ2yR6+QoXjqCW9N7zf/Iw6Rq2Jw3MYH/d2KkRAdhe3pDRE4aAA6FO0x0Q8T0TJ5iYm+08HR1x8tj6vn2BXu9Y5iQ1QcTtn3Qkj/Frj0/adYtXY30uu6w9vDG4OHdjNbn829AuCZb7zmPG2TgChhLP3QqdEft9ar4KFPYYhXPuLfn4U5732BpGYTMHtiOyQvUeU7wBbr/z4K/70xHBMD+CZVRs59/rXtt2MfvIyIYX2QNP0EIoZadsQDS9G3WPhxI8yeH4wH3S2nnFuO4MfTsTB1FQb9habtduK6HDEMfZKm40TEUAtr/g5RzmF58ONIX5iKVZYOkmEY5i4gucPp/sFi+6A+B/u/+hqHLxXgat2+GOSvetzyL4SSFoelC5di8fwEtBzd/4HfgAAAFD30ekVzI9wDj8Vx6ZGz/yt8ffgSCq7WRd9B/vjzKliBXq83fa8VwzDMPeC+3oTUyj5IFSg8swsfvReLNrNX4Fn1Q/d/JagU+ennYTdyLl7pYvJmkAeD8gs4tK8ALr42SNl7GmZm+sGhVnERKgrPYNdH7yG2zWyseLbpn9Sc5bhwaB8KXHxhk7IX5tqMYRjmbnKffxzDMAzDMMxflT/nly2GYRiGYRgVvAlhGIZhGMYq8CaEYRiGYRirwJsQhmEYhmGsAm9CGIZhGIaxCrwJYRiGYRjGKvAmhGEYhmEYq8CbEIZhGIZhrAJvQhiGYRiGsQq8CWEYhmEYxirwJoRhGIZhGKvAmxCGYRiGYawCb0IYhmEYhrEKvAlhGIZhGMYq8CaEYRiGYRirwJsQhmEYhmGsAm9CGIZhGIaxCrwJYRiGYRjGKvAmhGEYhmEYq8CbEIZhGIZhrAJvQhiGYRiGsQq8CWEYhmEYxirwJoRhGIZhGKvAmxCGYRiGYawCb0IYhmEYhrEKvAlhGIZhGMYq8CaEYRiGYRirwJsQhmEYhmGsAm9CGIZhGIaxCrwJYRiGYRjGKvAmhGEYhmEYq8CbEIZhGIZhrAJvQhiGYRiGsQq8CWEYhmEYxirwJoRhGIZhGKvAmxCGYRiGYawCb0IYhmEYhrEKvAlhGIZhGMYq/D8C2z+fZNpTygAAAABJRU5ErkJggg==;" vertex="1" parent="1">
          <mxGeometry x="540" y="-340" width="585" height="238.29" as="geometry" />
        </mxCell>
        <mxCell id="QGIApHq4PMKCcJ5c_HzO-72" value="Lote" style="whiteSpace=wrap;html=1;align=center;fillColor=#f0a30a;strokeColor=#BD7000;fontColor=#000000;" vertex="1" parent="1">
          <mxGeometry x="750" y="190" width="100" height="40" as="geometry" />
        </mxCell>
        <mxCell id="QGIApHq4PMKCcJ5c_HzO-73" value="Producto" style="whiteSpace=wrap;html=1;align=center;fillColor=#f0a30a;strokeColor=#BD7000;fontColor=#000000;" vertex="1" parent="1">
          <mxGeometry x="430" y="190" width="100" height="40" as="geometry" />
        </mxCell>
        <mxCell id="QGIApHq4PMKCcJ5c_HzO-74" value="Contiene" style="shape=rhombus;perimeter=rhombusPerimeter;whiteSpace=wrap;html=1;align=center;fillColor=#76608a;fontColor=#ffffff;strokeColor=#432D57;" vertex="1" parent="1">
          <mxGeometry x="600" y="190" width="90" height="40" as="geometry" />
        </mxCell>
        <mxCell id="QGIApHq4PMKCcJ5c_HzO-75" value="" style="endArrow=none;html=1;rounded=0;exitX=0;exitY=0.5;exitDx=0;exitDy=0;" edge="1" source="QGIApHq4PMKCcJ5c_HzO-74" parent="1">
          <mxGeometry relative="1" as="geometry">
            <mxPoint x="577" y="180" as="sourcePoint" />
            <mxPoint x="530" y="210" as="targetPoint" />
          </mxGeometry>
        </mxCell>
        <mxCell id="QGIApHq4PMKCcJ5c_HzO-76" value="(1,N)" style="resizable=0;html=1;whiteSpace=wrap;align=right;verticalAlign=bottom;" connectable="0" vertex="1" parent="QGIApHq4PMKCcJ5c_HzO-75">
          <mxGeometry x="1" relative="1" as="geometry">
            <mxPoint x="34" as="offset" />
          </mxGeometry>
        </mxCell>
        <mxCell id="QGIApHq4PMKCcJ5c_HzO-77" value="" style="endArrow=none;html=1;rounded=0;exitX=1;exitY=0.5;exitDx=0;exitDy=0;" edge="1" source="QGIApHq4PMKCcJ5c_HzO-74" parent="1">
          <mxGeometry relative="1" as="geometry">
            <mxPoint x="577" y="180" as="sourcePoint" />
            <mxPoint x="750" y="210" as="targetPoint" />
          </mxGeometry>
        </mxCell>
        <mxCell id="QGIApHq4PMKCcJ5c_HzO-78" value="(1,1)" style="resizable=0;html=1;whiteSpace=wrap;align=right;verticalAlign=bottom;" connectable="0" vertex="1" parent="QGIApHq4PMKCcJ5c_HzO-77">
          <mxGeometry x="1" relative="1" as="geometry">
            <mxPoint as="offset" />
          </mxGeometry>
        </mxCell>
        <mxCell id="QGIApHq4PMKCcJ5c_HzO-79" value="Puja" style="shape=rhombus;perimeter=rhombusPerimeter;whiteSpace=wrap;html=1;align=center;fillColor=#76608a;fontColor=#ffffff;strokeColor=#432D57;" vertex="1" parent="1">
          <mxGeometry x="920" y="190" width="90" height="40" as="geometry" />
        </mxCell>
        <mxCell id="QGIApHq4PMKCcJ5c_HzO-80" value="" style="endArrow=none;html=1;rounded=0;exitX=0;exitY=0.5;exitDx=0;exitDy=0;" edge="1" source="QGIApHq4PMKCcJ5c_HzO-79" parent="1">
          <mxGeometry relative="1" as="geometry">
            <mxPoint x="897" y="180" as="sourcePoint" />
            <mxPoint x="850" y="210" as="targetPoint" />
          </mxGeometry>
        </mxCell>
        <mxCell id="QGIApHq4PMKCcJ5c_HzO-81" value="(1,N)" style="resizable=0;html=1;whiteSpace=wrap;align=right;verticalAlign=bottom;" connectable="0" vertex="1" parent="QGIApHq4PMKCcJ5c_HzO-80">
          <mxGeometry x="1" relative="1" as="geometry">
            <mxPoint x="34" as="offset" />
          </mxGeometry>
        </mxCell>
        <mxCell id="QGIApHq4PMKCcJ5c_HzO-82" value="" style="endArrow=none;html=1;rounded=0;exitX=1;exitY=0.5;exitDx=0;exitDy=0;" edge="1" source="QGIApHq4PMKCcJ5c_HzO-79" parent="1" target="QGIApHq4PMKCcJ5c_HzO-84">
          <mxGeometry relative="1" as="geometry">
            <mxPoint x="897" y="180" as="sourcePoint" />
            <mxPoint x="1070" y="210" as="targetPoint" />
          </mxGeometry>
        </mxCell>
        <mxCell id="QGIApHq4PMKCcJ5c_HzO-83" value="(1,M)" style="resizable=0;html=1;whiteSpace=wrap;align=right;verticalAlign=bottom;" connectable="0" vertex="1" parent="QGIApHq4PMKCcJ5c_HzO-82">
          <mxGeometry x="1" relative="1" as="geometry">
            <mxPoint as="offset" />
          </mxGeometry>
        </mxCell>
        <mxCell id="QGIApHq4PMKCcJ5c_HzO-84" value="Cliente" style="whiteSpace=wrap;html=1;align=center;fillColor=#f0a30a;strokeColor=#BD7000;fontColor=#000000;" vertex="1" parent="1">
          <mxGeometry x="1070" y="190" width="100" height="40" as="geometry" />
        </mxCell>
        <mxCell id="QGIApHq4PMKCcJ5c_HzO-85" value="" style="endArrow=none;html=1;rounded=0;exitX=0.5;exitY=0;exitDx=0;exitDy=0;" edge="1" target="QGIApHq4PMKCcJ5c_HzO-86" parent="1" source="QGIApHq4PMKCcJ5c_HzO-79">
          <mxGeometry relative="1" as="geometry">
            <mxPoint x="970" y="155" as="sourcePoint" />
            <mxPoint x="1030" y="155" as="targetPoint" />
          </mxGeometry>
        </mxCell>
        <mxCell id="QGIApHq4PMKCcJ5c_HzO-86" value="Dia" style="ellipse;whiteSpace=wrap;html=1;align=center;" vertex="1" parent="1">
          <mxGeometry x="1005" y="140" width="50" height="30" as="geometry" />
        </mxCell>
        <mxCell id="QGIApHq4PMKCcJ5c_HzO-87" value="" style="endArrow=none;html=1;rounded=0;exitX=0.5;exitY=0;exitDx=0;exitDy=0;" edge="1" target="QGIApHq4PMKCcJ5c_HzO-88" parent="1" source="QGIApHq4PMKCcJ5c_HzO-79">
          <mxGeometry relative="1" as="geometry">
            <mxPoint x="930" y="125" as="sourcePoint" />
            <mxPoint x="990" y="125" as="targetPoint" />
          </mxGeometry>
        </mxCell>
        <mxCell id="QGIApHq4PMKCcJ5c_HzO-88" value="Hora" style="ellipse;whiteSpace=wrap;html=1;align=center;" vertex="1" parent="1">
          <mxGeometry x="960" y="110" width="50" height="30" as="geometry" />
        </mxCell>
        <mxCell id="QGIApHq4PMKCcJ5c_HzO-89" value="" style="endArrow=none;html=1;rounded=0;exitX=0.5;exitY=0;exitDx=0;exitDy=0;" edge="1" target="QGIApHq4PMKCcJ5c_HzO-90" parent="1" source="QGIApHq4PMKCcJ5c_HzO-79">
          <mxGeometry relative="1" as="geometry">
            <mxPoint x="870" y="135" as="sourcePoint" />
            <mxPoint x="930" y="135" as="targetPoint" />
          </mxGeometry>
        </mxCell>
        <mxCell id="QGIApHq4PMKCcJ5c_HzO-90" value="Cantidad" style="ellipse;whiteSpace=wrap;html=1;align=center;" vertex="1" parent="1">
          <mxGeometry x="890" y="120" width="55" height="30" as="geometry" />
        </mxCell>
        <mxCell id="QGIApHq4PMKCcJ5c_HzO-91" value="" style="endArrow=none;html=1;rounded=0;exitX=0;exitY=0;exitDx=0;exitDy=0;" edge="1" target="QGIApHq4PMKCcJ5c_HzO-92" parent="1" source="QGIApHq4PMKCcJ5c_HzO-72">
          <mxGeometry relative="1" as="geometry">
            <mxPoint x="690" y="115" as="sourcePoint" />
            <mxPoint x="750" y="115" as="targetPoint" />
          </mxGeometry>
        </mxCell>
        <mxCell id="QGIApHq4PMKCcJ5c_HzO-92" value="&lt;u&gt;NÃºmero_Catalogo&lt;/u&gt;" style="ellipse;whiteSpace=wrap;html=1;align=center;" vertex="1" parent="1">
          <mxGeometry x="650" y="60" width="135" height="30" as="geometry" />
        </mxCell>
        <mxCell id="QGIApHq4PMKCcJ5c_HzO-93" value="" style="endArrow=none;html=1;rounded=0;exitX=0.25;exitY=0;exitDx=0;exitDy=0;" edge="1" target="QGIApHq4PMKCcJ5c_HzO-94" parent="1" source="QGIApHq4PMKCcJ5c_HzO-72">
          <mxGeometry relative="1" as="geometry">
            <mxPoint x="805" y="95" as="sourcePoint" />
            <mxPoint x="865" y="95" as="targetPoint" />
          </mxGeometry>
        </mxCell>
        <mxCell id="QGIApHq4PMKCcJ5c_HzO-94" value="Precio_Salida" style="ellipse;whiteSpace=wrap;html=1;align=center;" vertex="1" parent="1">
          <mxGeometry x="787.5" y="60" width="90" height="30" as="geometry" />
        </mxCell>
        <mxCell id="QGIApHq4PMKCcJ5c_HzO-95" value="" style="endArrow=none;html=1;rounded=0;exitX=0.25;exitY=0;exitDx=0;exitDy=0;" edge="1" target="QGIApHq4PMKCcJ5c_HzO-96" parent="1" source="QGIApHq4PMKCcJ5c_HzO-72">
          <mxGeometry relative="1" as="geometry">
            <mxPoint x="720" y="125" as="sourcePoint" />
            <mxPoint x="780" y="125" as="targetPoint" />
          </mxGeometry>
        </mxCell>
        <mxCell id="QGIApHq4PMKCcJ5c_HzO-96" value="Mayor_Puja" style="ellipse;whiteSpace=wrap;html=1;align=center;" vertex="1" parent="1">
          <mxGeometry x="700" y="100" width="75" height="30" as="geometry" />
        </mxCell>
        <mxCell id="QGIApHq4PMKCcJ5c_HzO-97" value="" style="endArrow=none;html=1;rounded=0;exitX=0.5;exitY=0;exitDx=0;exitDy=0;" edge="1" target="QGIApHq4PMKCcJ5c_HzO-98" parent="1" source="QGIApHq4PMKCcJ5c_HzO-72">
          <mxGeometry relative="1" as="geometry">
            <mxPoint x="790" y="115" as="sourcePoint" />
            <mxPoint x="850" y="115" as="targetPoint" />
          </mxGeometry>
        </mxCell>
        <mxCell id="QGIApHq4PMKCcJ5c_HzO-98" value="Tiempo_Subasta" style="ellipse;whiteSpace=wrap;html=1;align=center;" vertex="1" parent="1">
          <mxGeometry x="785" y="100" width="105" height="30" as="geometry" />
        </mxCell>
        <mxCell id="QGIApHq4PMKCcJ5c_HzO-99" value="" style="endArrow=none;html=1;rounded=0;exitX=1;exitY=0;exitDx=0;exitDy=0;" edge="1" target="QGIApHq4PMKCcJ5c_HzO-100" parent="1" source="QGIApHq4PMKCcJ5c_HzO-73">
          <mxGeometry relative="1" as="geometry">
            <mxPoint x="438" y="55" as="sourcePoint" />
            <mxPoint x="498" y="55" as="targetPoint" />
          </mxGeometry>
        </mxCell>
        <mxCell id="QGIApHq4PMKCcJ5c_HzO-100" value="&lt;u&gt;CÃ³digo_Producto&lt;/u&gt;" style="ellipse;whiteSpace=wrap;html=1;align=center;" vertex="1" parent="1">
          <mxGeometry x="500" y="100" width="107" height="30" as="geometry" />
        </mxCell>
      </root>
    </mxGraphModel>
  </diagram>
</mxfile>
